<svg width="402" height="144" viewBox="0 0 402 144" fill="none" xmlns="http://www.w3.org/2000/svg">
<path d="M324 -35C324 55.2986 249.232 128.5 157 128.5C64.7684 128.5 -10 55.2986 -10 -35" stroke="#4666C7" stroke-width="30"/>
<path d="M324 -35C324 55.2986 249.232 128.5 157 128.5C64.7684 128.5 -10 55.2986 -10 -35" stroke="url(#paint0_linear)" stroke-width="30"/>
<path d="M387 7C387 36.5463 360.023 63 323.5 63C286.977 63 260 36.5463 260 7C260 -22.5463 286.977 -49 323.5 -49C360.023 -49 387 -22.5463 387 7Z" stroke="black" stroke-width="30"/>
<path d="M387 7C387 36.5463 360.023 63 323.5 63C286.977 63 260 36.5463 260 7C260 -22.5463 286.977 -49 323.5 -49C360.023 -49 387 -22.5463 387 7Z" stroke="url(#paint1_linear)" stroke-width="30"/>
<defs>
<linearGradient id="paint0_linear" x1="262" y1="-134.5" x2="262" y2="192.5" gradientUnits="userSpaceOnUse">
<stop stop-color="white"/>
<stop offset="1" stop-color="white" stop-opacity="0"/>
</linearGradient>
<linearGradient id="paint1_linear" x1="235.5" y1="-91.5" x2="369" y2="60" gradientUnits="userSpaceOnUse">
<stop offset="0.458333" stop-color="#FBE69E"/>
<stop offset="0.9998" stop-color="#F1C830" stop-opacity="0.969074"/>
<stop offset="0.9999" stop-color="#F8CA2A"/>
</linearGradient>
</defs>
</svg>
