<svg width="158" height="158" viewBox="0 0 158 158" fill="none" xmlns="http://www.w3.org/2000/svg">
<circle cx="79" cy="79" r="77.5" stroke="#C4C4C4" stroke-width="3"/>
<path d="M43.2194 58.3405L43.21 58.3297L43.2003 58.3191C42.5165 57.5666 42.1287 56.5274 42.1287 55.4756C42.1287 53.0715 44.0468 51.1572 46.3562 51.1572H106.001C108.311 51.1572 110.229 53.0716 110.229 55.4756C110.229 56.5274 109.841 57.5666 109.157 58.3191L109.147 58.3297L109.138 58.3405L78.9994 92.8096L78.6287 93.2336V93.7969V113.86V115.36H80.1287H95.9287C97.2505 115.36 98.3787 116.472 98.3787 117.873C98.3787 119.274 97.2506 120.386 95.9287 120.386H56.4287C55.1068 120.386 53.9787 119.274 53.9787 117.873C53.9787 116.472 55.1068 115.36 56.4287 115.36H72.2287H73.7287V113.86V93.7969V93.2336L73.3579 92.8096L43.2194 58.3405ZM56.9962 66.6933L57.4445 67.208H58.1272H94.2302H94.9103L95.3584 66.6965L102.389 58.6711L104.57 56.1826H101.261H51.1357H47.8395L50.0047 58.6679L56.9962 66.6933Z" fill="white" stroke="#C4C4C4" stroke-width="3"/>
<path d="M0 0V-1H-1V0H0ZM158 0H159V-1H158V0ZM158 158V159H159V158H158ZM0 158H-1V159H0V158ZM0 1H158V-1H0V1ZM157 0V158H159V0H157ZM158 157H0V159H158V157ZM1 158V0H-1V158H1Z" fill="white"/>
</svg>
