<svg width="158" height="158" viewBox="0 0 158 158" fill="none" xmlns="http://www.w3.org/2000/svg">
<g filter="url(#filter0_b)">
<circle cx="79" cy="79" r="77.5" stroke="#C4C4C4" stroke-width="3"/>
</g>
<g filter="url(#filter1_b)">
<path d="M51.325 58.1429H45.175C43.4709 58.1429 42.1 59.5042 42.1 61.1964V74.4286H39.025C38.4613 74.4286 38 74.8866 38 75.4464V81.5536C38 82.1134 38.4613 82.5714 39.025 82.5714H42.1V95.8036C42.1 97.4958 43.4709 98.8571 45.175 98.8571H51.325C53.0291 98.8571 54.4 97.4958 54.4 95.8036V61.1964C54.4 59.5042 53.0291 58.1429 51.325 58.1429ZM118.975 74.4286H115.9V61.1964C115.9 59.5042 114.529 58.1429 112.825 58.1429H106.675C104.971 58.1429 103.6 59.5042 103.6 61.1964V95.8036C103.6 97.4958 104.971 98.8571 106.675 98.8571H112.825C114.529 98.8571 115.9 97.4958 115.9 95.8036V82.5714H118.975C119.539 82.5714 120 82.1134 120 81.5536V75.4464C120 74.8866 119.539 74.4286 118.975 74.4286ZM96.425 50H90.275C88.5709 50 87.2 51.3614 87.2 53.0536V74.4286H70.8V53.0536C70.8 51.3614 69.4291 50 67.725 50H61.575C59.8709 50 58.5 51.3614 58.5 53.0536V103.946C58.5 105.639 59.8709 107 61.575 107H67.725C69.4291 107 70.8 105.639 70.8 103.946V82.5714H87.2V103.946C87.2 105.639 88.5709 107 90.275 107H96.425C98.1291 107 99.5 105.639 99.5 103.946V53.0536C99.5 51.3614 98.1291 50 96.425 50Z" fill="white"/>
<path d="M42.1 75.9286H43.6V74.4286V61.1964C43.6 60.3425 44.2895 59.6429 45.175 59.6429H51.325C52.2105 59.6429 52.9 60.3425 52.9 61.1964V95.8036C52.9 96.6575 52.2105 97.3571 51.325 97.3571H45.175C44.2895 97.3571 43.6 96.6575 43.6 95.8036V82.5714V81.0714H42.1H39.5V75.9286H42.1ZM114.4 74.4286V75.9286H115.9H118.5V81.0714H115.9H114.4V82.5714V95.8036C114.4 96.6575 113.711 97.3571 112.825 97.3571H106.675C105.789 97.3571 105.1 96.6575 105.1 95.8036V61.1964C105.1 60.3425 105.789 59.6429 106.675 59.6429H112.825C113.711 59.6429 114.4 60.3425 114.4 61.1964V74.4286ZM87.2 75.9286H88.7V74.4286V53.0536C88.7 52.1997 89.3895 51.5 90.275 51.5H96.425C97.3105 51.5 98 52.1997 98 53.0536V103.946C98 104.8 97.3105 105.5 96.425 105.5H90.275C89.3895 105.5 88.7 104.8 88.7 103.946V82.5714V81.0714H87.2H70.8H69.3V82.5714V103.946C69.3 104.8 68.6105 105.5 67.725 105.5H61.575C60.6895 105.5 60 104.8 60 103.946V53.0536C60 52.1997 60.6895 51.5 61.575 51.5H67.725C68.6105 51.5 69.3 52.1997 69.3 53.0536V74.4286V75.9286H70.8H87.2Z" stroke="#C4C4C4" stroke-width="3"/>
</g>
<defs>
<filter id="filter0_b" x="-4" y="-4" width="166" height="166" filterUnits="userSpaceOnUse" color-interpolation-filters="sRGB">
<feFlood flood-opacity="0" result="BackgroundImageFix"/>
<feGaussianBlur in="BackgroundImage" stdDeviation="2"/>
<feComposite in2="SourceAlpha" operator="in" result="effect1_backgroundBlur"/>
<feBlend mode="normal" in="SourceGraphic" in2="effect1_backgroundBlur" result="shape"/>
</filter>
<filter id="filter1_b" x="34" y="46" width="90" height="65" filterUnits="userSpaceOnUse" color-interpolation-filters="sRGB">
<feFlood flood-opacity="0" result="BackgroundImageFix"/>
<feGaussianBlur in="BackgroundImage" stdDeviation="2"/>
<feComposite in2="SourceAlpha" operator="in" result="effect1_backgroundBlur"/>
<feBlend mode="normal" in="SourceGraphic" in2="effect1_backgroundBlur" result="shape"/>
</filter>
</defs>
</svg>
