<svg width="103" height="131" viewBox="0 0 103 131" fill="none" xmlns="http://www.w3.org/2000/svg">
<path d="M98 119.5C98 120.5 97.1331 121.756 94.7704 123.108C92.4841 124.417 89.1093 125.629 84.8523 126.66C76.3538 128.717 64.5615 130 51.5 130C38.4385 130 26.6462 128.717 18.1477 126.66C13.8907 125.629 10.5159 124.417 8.22956 123.108C5.86687 121.756 5 120.5 5 119.5C5 118.5 5.86687 117.244 8.22956 115.892C10.5159 114.583 13.8907 113.371 18.1477 112.34C26.6462 110.283 38.4385 109 51.5 109C64.5615 109 76.3538 110.283 84.8523 112.34C89.1093 113.371 92.4841 114.583 94.7704 115.892C97.1331 117.244 98 118.5 98 119.5Z" stroke="#4666C7" stroke-opacity="0.8" stroke-width="2"/>
<path d="M98 119.5C98 120.5 97.1331 121.756 94.7704 123.108C92.4841 124.417 89.1093 125.629 84.8523 126.66C76.3538 128.717 64.5615 130 51.5 130C38.4385 130 26.6462 128.717 18.1477 126.66C13.8907 125.629 10.5159 124.417 8.22956 123.108C5.86687 121.756 5 120.5 5 119.5C5 118.5 5.86687 117.244 8.22956 115.892C10.5159 114.583 13.8907 113.371 18.1477 112.34C26.6462 110.283 38.4385 109 51.5 109C64.5615 109 76.3538 110.283 84.8523 112.34C89.1093 113.371 92.4841 114.583 94.7704 115.892C97.1331 117.244 98 118.5 98 119.5Z" stroke="url(#paint0_linear)" stroke-width="2"/>
<path fill-rule="evenodd" clip-rule="evenodd" d="M31.5118 2.49044C31.6115 2.39736 31.5456 2.23035 31.4092 2.23035C31.3262 2.23035 31.2589 2.16307 31.2589 2.08007V1.73035C31.2589 1.4542 31.4828 1.23035 31.7589 1.23035H73.9324C74.2173 1.23035 74.4483 1.46135 74.4483 1.74631C74.4483 1.87824 74.4989 2.00515 74.5895 2.10097L100.994 29.9994C101.017 30.0239 101.049 30.0376 101.083 30.0372C101.15 30.0363 101.204 30.0898 101.205 30.1565L101.206 30.2061C101.206 30.2176 101.21 30.2285 101.218 30.2369L101.222 30.2412C101.238 30.2574 101.237 30.2829 101.22 30.2979C101.212 30.3055 101.207 30.3164 101.207 30.3277L101.505 53.8468C101.506 53.9231 101.544 53.9943 101.606 54.0381C101.715 54.1141 101.74 54.2646 101.662 54.3719L52.5002 121.96C52.3399 122.18 52.0327 122.232 51.8094 122.076C51.5802 121.915 51.5271 121.598 51.6917 121.372L99.7283 55.3304C100.236 54.6327 100.504 53.7896 100.493 52.9269L100.211 30.6508C100.211 30.6356 100.205 30.621 100.195 30.61C100.179 30.5932 100.155 30.587 100.133 30.5939C81.6406 36.3639 66.9831 39.2943 51.9986 39.3118C37.188 39.3291 22.0889 36.5008 2.68301 30.7971C2.67794 30.7957 2.67239 30.7969 2.66852 30.8005C2.66549 30.8034 2.66377 30.8073 2.66377 30.8115V52.7656C2.66377 53.623 2.93929 54.4577 3.44971 55.1467L51.6779 120.246C51.8444 120.47 51.7941 120.788 51.5665 120.95C51.3446 121.108 51.0369 121.06 50.8747 120.841L2.09492 54.9973C2.04983 54.9364 1.97857 54.9005 1.90283 54.9005C1.7708 54.9005 1.66377 54.7935 1.66377 54.6615V54.4811C1.66377 54.4384 1.65004 54.3968 1.62461 54.3624L1.58144 54.3042C1.53878 54.2466 1.55166 54.1652 1.61002 54.1236C1.64375 54.0995 1.66377 54.0607 1.66377 54.0193V31.4381C1.66377 31.3203 1.61785 31.2071 1.53575 31.1225L1.51466 31.1008C1.34953 30.9307 1.35617 30.6582 1.5294 30.4964L1.58765 30.442C1.63621 30.3967 1.66377 30.3332 1.66377 30.2668V30.1719C1.66377 30.0918 1.72868 30.0269 1.80875 30.0269C1.87294 30.0269 1.92949 29.9847 1.94774 29.9231L1.9856 29.7954C2.02277 29.6701 2.1545 29.5985 2.27988 29.6357C2.36036 29.6595 2.44743 29.6389 2.50876 29.5816L31.5118 2.49044ZM73.4167 2.27673C73.4057 2.28679 73.405 2.30394 73.4153 2.31479L94.9888 25.1092C97.0244 27.2601 96.0969 30.798 93.2513 31.6179C87.783 33.1933 82.6428 34.4916 77.7039 35.5117C75.5634 35.9538 73.5068 34.5361 73.0317 32.4026C71.7813 26.7882 70.3561 22.1786 68.3359 17.8007C66.7642 14.3947 64.8366 11.1383 62.3617 7.66367C60.7702 5.42931 62.3033 2.23035 65.0465 2.23035H73.3988C73.4231 2.23035 73.4347 2.26033 73.4167 2.27673ZM67.4279 18.2197C69.3873 22.4657 70.7834 26.9482 72.0138 32.4329C72.5048 34.622 71.0335 36.7569 68.8127 37.0748C63.1016 37.8924 57.5703 38.3053 51.9974 38.3118C39.2236 38.3268 26.2077 36.2067 10.2833 31.9052C7.29087 31.0969 6.3896 27.3248 8.65478 25.2089L33.1659 2.31353C33.1768 2.30335 33.1772 2.28621 33.1668 2.27552C33.1504 2.25864 33.1624 2.23035 33.1859 2.23035H39.9504C42.3989 2.23035 43.7537 5.10374 42.3096 7.08108C39.7768 10.549 37.8272 13.8367 36.2717 17.3487C33.9274 22.6415 32.4894 28.4184 31.2802 36.0489C31.237 36.3216 31.4237 36.5784 31.6965 36.6209C31.9694 36.6633 32.2251 36.4753 32.2683 36.2026C33.471 28.6145 34.8916 22.9338 37.186 17.7537C39.286 13.0124 42.1275 8.66919 46.2365 3.65727C46.9829 2.74694 48.1041 2.23035 49.2813 2.23035H55.0225C56.2203 2.23035 57.3586 2.7657 58.106 3.70177C62.3164 8.97527 65.2307 13.4582 67.4279 18.2197Z" fill="#FA8654"/>
<path d="M51.9986 39.3118L51.998 38.8118L51.9986 39.3118ZM68.3359 17.8007L67.8819 18.0102L68.3359 17.8007ZM67.4279 18.2197L66.974 18.4292L67.4279 18.2197ZM51.9974 38.3118L51.998 38.8118L51.9974 38.3118ZM36.2717 17.3487L36.7288 17.5512V17.5512L36.2717 17.3487ZM37.186 17.7537L37.6432 17.9562L37.186 17.7537ZM58.106 3.70177L58.4968 3.38981L58.106 3.70177ZM33.1659 2.31353L33.5072 2.67892L33.1659 2.31353ZM8.65478 25.2089L8.31347 24.8435L8.65478 25.2089ZM72.0138 32.4329L72.5016 32.3235L72.0138 32.4329ZM77.7039 35.5117L77.6028 35.022L77.7039 35.5117ZM73.0317 32.4026L73.5197 32.2939L73.0317 32.4026ZM73.4153 2.31479L73.0522 2.65848L73.4153 2.31479ZM2.50876 29.5816L2.85007 29.947L2.50876 29.5816ZM1.94774 29.9231L1.46836 29.781L1.94774 29.9231ZM1.58765 30.442L1.92895 30.8074L1.58765 30.442ZM1.51466 31.1008L1.15595 31.4491L1.51466 31.1008ZM1.5294 30.4964L1.8707 30.8618L1.5294 30.4964ZM1.53575 31.1225L1.17704 31.4708L1.53575 31.1225ZM1.58144 54.3042L1.17968 54.6018L1.58144 54.3042ZM1.62461 54.3624L2.02637 54.0648L1.62461 54.3624ZM50.8747 120.841L50.4729 121.138L50.8747 120.841ZM51.6779 120.246L52.0797 119.948L51.6779 120.246ZM2.68301 30.7971L2.824 30.3174L2.68301 30.7971ZM100.133 30.5939L100.282 31.0712L100.133 30.5939ZM100.211 30.6508L100.711 30.6444L100.211 30.6508ZM99.7283 55.3304L99.324 55.0363L99.7283 55.3304ZM100.493 52.9269L100.993 52.9206L100.493 52.9269ZM51.6917 121.372L52.096 121.666L51.6917 121.372ZM52.5002 121.96L52.0959 121.666L52.5002 121.96ZM101.662 54.3719L102.066 54.666L101.662 54.3719ZM101.505 53.8468L102.005 53.8405L101.505 53.8468ZM101.207 30.3277L101.707 30.3214L101.207 30.3277ZM101.222 30.2412L100.859 30.5849L101.222 30.2412ZM101.206 30.2061L100.706 30.2124L101.206 30.2061ZM101.218 30.2369L101.582 29.8932L101.218 30.2369ZM101.205 30.1565L100.705 30.1629L101.205 30.1565ZM100.994 29.9994L100.63 30.3431L100.994 29.9994ZM74.5895 2.10097L74.9527 1.75728L74.5895 2.10097ZM32.2683 36.2026L31.7745 36.1243L32.2683 36.2026ZM31.2802 36.0489L31.7741 36.1271L31.2802 36.0489ZM31.5118 2.49044L31.8531 2.85583L31.5118 2.49044ZM2.09492 54.9973L2.49668 54.6996L2.09492 54.9973ZM42.3096 7.08108L41.9058 6.78618L42.3096 7.08108ZM30.7589 1.73035V2.08007H31.7589V1.73035H30.7589ZM73.9324 0.730347H31.7589V1.73035H73.9324V0.730347ZM101.357 29.6557L74.9527 1.75728L74.2264 2.44467L100.63 30.3431L101.357 29.6557ZM100.705 30.1629L100.706 30.2124L101.706 30.1998L101.705 30.1502L100.705 30.1629ZM101.586 29.8975L101.582 29.8932L100.855 30.5806L100.859 30.5849L101.586 29.8975ZM100.707 30.334L101.005 53.8531L102.005 53.8405L101.707 30.3214L100.707 30.334ZM52.9046 122.254L102.066 54.666L101.258 54.0777L52.0959 121.666L52.9046 122.254ZM99.324 55.0363L51.2873 121.078L52.096 121.666L100.133 55.6245L99.324 55.0363ZM100.993 52.9206L100.711 30.6444L99.7115 30.6571L99.9933 52.9332L100.993 52.9206ZM51.9992 39.8118C67.0531 39.7942 81.7639 36.8492 100.282 31.0712L99.9838 30.1166C81.5172 35.8787 66.9132 38.7944 51.998 38.8118L51.9992 39.8118ZM2.54202 31.2769C21.971 36.9873 37.1215 39.8292 51.9992 39.8118L51.998 38.8118C37.2545 38.8291 22.2069 36.0143 2.824 30.3174L2.54202 31.2769ZM3.16377 52.7656V30.8115H2.16377V52.7656H3.16377ZM52.0797 119.948L3.85146 54.8491L3.04795 55.4443L51.2762 120.543L52.0797 119.948ZM1.69316 55.2949L50.4729 121.138L51.2765 120.543L2.49668 54.6996L1.69316 55.2949ZM1.16377 54.4811V54.6615H2.16377V54.4811H1.16377ZM1.17968 54.6018L1.22285 54.6601L2.02637 54.0648L1.9832 54.0065L1.17968 54.6018ZM1.16377 31.4381V54.0193H2.16377V31.4381H1.16377ZM1.15595 31.4491L1.17704 31.4708L1.89446 30.7742L1.87337 30.7525L1.15595 31.4491ZM1.24634 30.0766L1.18809 30.1311L1.8707 30.8618L1.92895 30.8074L1.24634 30.0766ZM1.16377 30.1719V30.2668H2.16377V30.1719H1.16377ZM1.50623 29.6533L1.46836 29.781L2.42712 30.0653L2.46498 29.9376L1.50623 29.6533ZM31.1705 2.12505L2.16746 29.2162L2.85007 29.947L31.8531 2.85583L31.1705 2.12505ZM95.3519 24.7655L73.7785 1.97109L73.0522 2.65848L94.6257 25.4529L95.3519 24.7655ZM77.8051 36.0013C82.7588 34.9782 87.9117 33.6766 93.3897 32.0984L93.1129 31.1374C87.6544 32.7101 82.5267 34.005 77.6028 35.022L77.8051 36.0013ZM67.8819 18.0102C69.8828 22.3461 71.2983 26.9194 72.5436 32.5113L73.5197 32.2939C72.2643 26.657 70.8295 22.0111 68.7899 17.5912L67.8819 18.0102ZM61.9544 7.95375C64.4143 11.4072 66.3252 14.6368 67.8819 18.0102L68.7899 17.5912C67.2032 14.1527 65.2589 10.8694 62.7689 7.37359L61.9544 7.95375ZM73.3988 1.73035H65.0465V2.73035H73.3988V1.73035ZM72.5016 32.3235C71.2662 26.8162 69.8604 22.2977 67.8819 18.0102L66.974 18.4292C68.9141 22.6337 70.3006 27.0802 71.5259 32.5424L72.5016 32.3235ZM51.998 38.8118C57.5958 38.8053 63.1506 38.3905 68.8836 37.5698L68.7419 36.5799C63.0527 37.3943 57.5449 37.8053 51.9969 37.8118L51.998 38.8118ZM10.1529 32.3879C26.1036 36.6965 39.1657 38.8268 51.998 38.8118L51.9969 37.8118C39.2815 37.8267 26.3118 35.7169 10.4137 31.4225L10.1529 32.3879ZM32.8246 1.94813L8.31347 24.8435L8.99608 25.5743L33.5072 2.67892L32.8246 1.94813ZM39.9504 1.73035H33.1859V2.73035H39.9504V1.73035ZM36.7288 17.5512C38.2677 14.0769 40.1981 10.82 42.7134 7.37597L41.9058 6.78618C39.3556 10.2781 37.3868 13.5965 35.8145 17.1463L36.7288 17.5512ZM31.7741 36.1271C32.98 28.5171 34.4094 22.7879 36.7288 17.5512L35.8145 17.1463C33.4454 22.495 31.9988 28.3197 30.7864 35.9706L31.7741 36.1271ZM36.7288 17.5512C34.4096 22.7874 32.9804 28.5157 31.7745 36.1243L32.7622 36.2808C33.9616 28.7132 35.3736 23.0803 37.6432 17.9562L36.7288 17.5512ZM45.8499 3.34027C41.7219 8.37527 38.8524 12.7569 36.7288 17.5512L37.6432 17.9562C39.7197 13.268 42.5331 8.96312 46.6232 3.97428L45.8499 3.34027ZM55.0225 1.73035H49.2813V2.73035H55.0225V1.73035ZM67.8819 18.0102C65.6629 13.2014 62.7237 8.68399 58.4968 3.38981L57.7153 4.01374C61.9092 9.26655 64.7985 13.715 66.974 18.4292L67.8819 18.0102ZM55.0225 2.73035C56.0718 2.73035 57.065 3.19926 57.7153 4.01374L58.4968 3.38981C57.6523 2.33213 56.3688 1.73035 55.0225 1.73035V2.73035ZM33.5255 1.9272C33.817 2.22735 33.6043 2.73035 33.1859 2.73035V1.73035C32.7205 1.73035 32.4839 2.28993 32.8081 2.62384L33.5255 1.9272ZM33.5072 2.67892C33.7227 2.47766 33.7309 2.13873 33.5255 1.9272L32.8081 2.62384C32.6235 2.4337 32.6309 2.12904 32.8246 1.94813L33.5072 2.67892ZM10.4137 31.4225C7.80852 30.7188 7.01074 27.4288 8.99608 25.5743L8.31347 24.8435C5.76846 27.2208 6.77322 31.475 10.1529 32.3879L10.4137 31.4225ZM71.5259 32.5424C71.9532 34.4472 70.6737 36.3033 68.7419 36.5799L68.8836 37.5698C71.3934 37.2105 73.0564 34.7967 72.5016 32.3235L71.5259 32.5424ZM73.3988 2.73035C72.9663 2.73035 72.7603 2.19814 73.0801 1.907L73.7533 2.64647C74.1092 2.32252 73.88 1.73035 73.3988 1.73035V2.73035ZM62.7689 7.37359C61.395 5.44469 62.7407 2.73035 65.0465 2.73035V1.73035C61.8659 1.73035 60.1453 5.41392 61.9544 7.95375L62.7689 7.37359ZM77.6028 35.022C75.7463 35.4055 73.9392 34.1776 73.5197 32.2939L72.5436 32.5113C73.0744 34.8946 75.3805 36.5021 77.8051 36.0013L77.6028 35.022ZM73.7785 1.97109C73.9606 2.16352 73.9493 2.46803 73.7533 2.64647L73.0801 1.907C72.862 2.10554 72.8495 2.44437 73.0522 2.65848L73.7785 1.97109ZM94.6257 25.4529C96.4098 27.3381 95.59 30.4238 93.1129 31.1374L93.3897 32.0984C96.6039 31.1723 97.639 27.1821 95.3519 24.7655L94.6257 25.4529ZM2.13798 30.1151C2.38836 30.1892 2.65926 30.1253 2.85007 29.947L2.16746 29.2162C2.23561 29.1526 2.33236 29.1297 2.42179 29.1562L2.13798 30.1151ZM2.46498 29.9376C2.42368 30.0769 2.2773 30.1563 2.13798 30.1151L2.42179 29.1562C2.0317 29.0408 1.62186 29.2633 1.50623 29.6533L2.46498 29.9376ZM1.80875 30.5269C2.09434 30.5269 2.34593 30.3391 2.42712 30.0653L1.46836 29.781C1.51305 29.6303 1.65154 29.5269 1.80875 29.5269V30.5269ZM2.16377 30.1719C2.16377 30.368 2.00482 30.5269 1.80875 30.5269V29.5269C1.45254 29.5269 1.16377 29.8157 1.16377 30.1719H2.16377ZM1.92895 30.8074C2.07874 30.6675 2.16377 30.4717 2.16377 30.2668H1.16377C1.16377 30.1947 1.19367 30.1258 1.24634 30.0766L1.92895 30.8074ZM1.87337 30.7525C1.90325 30.7832 1.90205 30.8326 1.8707 30.8618L1.18809 30.1311C0.810299 30.4839 0.795807 31.0782 1.15595 31.4491L1.87337 30.7525ZM2.16377 31.4381C2.16377 31.1902 2.06717 30.952 1.89446 30.7742L1.17704 31.4708C1.16853 31.4621 1.16377 31.4503 1.16377 31.4381H2.16377ZM1.90025 54.5307C2.0656 54.4129 2.16377 54.2223 2.16377 54.0193H1.16377C1.16377 53.899 1.2219 53.7862 1.31979 53.7164L1.90025 54.5307ZM1.9832 54.0065C2.10705 54.1737 2.06966 54.41 1.90025 54.5307L1.31979 53.7164C1.03365 53.9204 0.970501 54.3195 1.17968 54.6018L1.9832 54.0065ZM2.16377 54.4811C2.16377 54.3312 2.1156 54.1853 2.02637 54.0648L1.22285 54.6601C1.18448 54.6083 1.16377 54.5456 1.16377 54.4811H2.16377ZM1.90283 54.4005C2.04695 54.4005 2.16377 54.5174 2.16377 54.6615H1.16377C1.16377 55.0696 1.49466 55.4005 1.90283 55.4005V54.4005ZM51.2762 120.543L51.2765 120.543L50.4729 121.138C50.7974 121.576 51.4129 121.674 51.8567 121.357L51.2762 120.543ZM51.2762 120.543L51.2762 120.543L51.8567 121.357C52.3122 121.033 52.4127 120.397 52.0797 119.948L51.2762 120.543ZM2.16377 52.7656C2.16377 53.7302 2.47373 54.6693 3.04795 55.4443L3.85146 54.8491C3.40485 54.2462 3.16377 53.5158 3.16377 52.7656H2.16377ZM2.32722 30.4352C2.22295 30.5325 2.16377 30.6688 2.16377 30.8115H3.16377C3.16377 30.9458 3.10804 31.0742 3.00982 31.1659L2.32722 30.4352ZM2.824 30.3174C2.65157 30.2668 2.46207 30.3092 2.32722 30.4352L3.00982 31.1659C2.8827 31.2847 2.7043 31.3246 2.54202 31.2769L2.824 30.3174ZM100.558 30.2663C100.409 30.1091 100.186 30.0536 99.9838 30.1166L100.282 31.0712C100.124 31.1204 99.9488 31.0773 99.8317 30.9536L100.558 30.2663ZM100.711 30.6444C100.71 30.5036 100.655 30.3686 100.558 30.2663L99.8317 30.9536C99.7558 30.8734 99.7129 30.7675 99.7115 30.6571L100.711 30.6444ZM100.133 55.6245C100.704 54.8396 101.005 53.8911 100.993 52.9206L99.9933 52.9332C100.003 53.6881 99.768 54.4258 99.324 55.0363L100.133 55.6245ZM52.096 121.666L52.096 121.666L51.2873 121.078C50.9583 121.53 51.0643 122.165 51.5227 122.485L52.096 121.666ZM52.0959 121.666L52.096 121.666L51.5227 122.485C51.9693 122.798 52.584 122.695 52.9046 122.254L52.0959 121.666ZM101.319 54.4478C101.199 54.3634 101.171 54.1967 101.258 54.0777L102.066 54.666C102.309 54.3325 102.231 53.8648 101.893 53.6284L101.319 54.4478ZM101.005 53.8531C101.008 54.0904 101.125 54.3117 101.319 54.4478L101.893 53.6284C101.962 53.6769 102.004 53.7558 102.005 53.8405L101.005 53.8531ZM100.884 29.9281C100.77 30.032 100.706 30.1798 100.707 30.334L101.707 30.3214C101.709 30.453 101.654 30.579 101.557 30.6676L100.884 29.9281ZM100.859 30.5849C100.682 30.3978 100.693 30.1016 100.884 29.9281L101.557 30.6676C101.78 30.4642 101.793 30.117 101.586 29.8975L100.859 30.5849ZM100.706 30.2124C100.708 30.3495 100.761 30.481 100.855 30.5806L101.582 29.8932C101.66 29.9761 101.704 30.0856 101.706 30.1998L100.706 30.2124ZM101.089 30.5371C100.88 30.5397 100.708 30.3721 100.705 30.1629L101.705 30.1502C101.701 29.8074 101.42 29.533 101.077 29.5372L101.089 30.5371ZM46.6232 3.97428C47.272 3.18291 48.2498 2.73035 49.2813 2.73035V1.73035C47.9584 1.73035 46.6938 2.31096 45.8499 3.34027L46.6232 3.97428ZM100.63 30.3431C100.75 30.4689 100.916 30.5392 101.089 30.5371L101.077 29.5372C101.183 29.5359 101.284 29.5789 101.357 29.6557L100.63 30.3431ZM73.9483 1.74631C73.9483 2.00608 74.0478 2.25599 74.2264 2.44467L74.9527 1.75728C74.9499 1.75432 74.9483 1.75039 74.9483 1.74631H73.9483ZM31.6197 37.1149C32.1673 37.2001 32.6762 36.8233 32.7622 36.2808L31.7745 36.1243C31.7744 36.1247 31.7744 36.125 31.7743 36.1251C31.7743 36.1253 31.7743 36.1253 31.7743 36.1253C31.7743 36.1253 31.7743 36.1253 31.7743 36.1254C31.7742 36.1255 31.7738 36.1261 31.773 36.1266C31.7723 36.1271 31.772 36.1271 31.7725 36.127C31.7733 36.1268 31.7739 36.1269 31.7734 36.1268L31.6197 37.1149ZM73.9324 1.73035C73.9355 1.73035 73.9372 1.73088 73.9384 1.7314C73.94 1.73205 73.9418 1.73321 73.9436 1.73502C73.9454 1.73683 73.9466 1.7387 73.9473 1.74025C73.9478 1.74146 73.9483 1.74318 73.9483 1.74631H74.9483C74.9483 1.18521 74.4935 0.730347 73.9324 0.730347V1.73035ZM30.7864 35.9706C30.7 36.516 31.0728 37.0299 31.6197 37.1149L31.7734 36.1268L31.7741 36.1271L30.7864 35.9706ZM31.7589 1.73035V0.730347C31.2067 0.730347 30.7589 1.17806 30.7589 1.73035H31.7589ZM31.4092 2.73035C31.0919 2.73035 30.9386 2.34168 31.1705 2.12505L31.8531 2.85583C32.2843 2.45304 31.9993 1.73035 31.4092 1.73035V2.73035ZM2.49668 54.6996C2.35729 54.5115 2.13699 54.4005 1.90283 54.4005V55.4005C1.82016 55.4005 1.74238 55.3613 1.69316 55.2949L2.49668 54.6996ZM39.9504 2.73035C41.9579 2.73035 43.1277 5.11316 41.9058 6.78618L42.7134 7.37597C44.3797 5.09431 42.8399 1.73035 39.9504 1.73035V2.73035ZM31.4092 1.73035C31.6024 1.73035 31.7589 1.88692 31.7589 2.08007H30.7589C30.7589 2.43921 31.0501 2.73035 31.4092 2.73035V1.73035Z" fill="#FA8654"/>
<circle cx="41.5" cy="79.5" r="1.4" stroke="#4666C7" stroke-width="0.2"/>
<path d="M28 75C46.8 81.6667 56.9833 81.6667 75 75" stroke="#C4C4C4"/>
<path d="M76 69.5C76 82.4414 65.0691 93 51.5 93C37.9309 93 27 82.4414 27 69.5C27 56.5586 37.9309 46 51.5 46C65.0691 46 76 56.5586 76 69.5Z" stroke="#C4C4C4" stroke-width="2"/>
<path d="M52 46C64.2988 66.3324 63.6975 76.5269 52 93" stroke="#C4C4C4"/>
<path d="M52 46C39.7012 66.3324 40.3025 76.5269 52 93" stroke="#C4C4C4"/>
<path d="M52 46C73.4521 60.6875 70.4932 81.25 52 93" stroke="#C4C4C4"/>
<path d="M52 46C73.4521 60.6875 70.4932 81.25 52 93" stroke="#C4C4C4"/>
<path d="M32 83C48.3969 87.0543 57.1295 86.9454 72 83" stroke="#C4C4C4"/>
<circle cx="56.5" cy="82.5" r="1.4" stroke="#FF8251" stroke-width="0.2"/>
<path d="M52 46C30.5479 60.6875 33.5068 81.25 52 93" stroke="#C4C4C4"/>
<path d="M28 68C46.8 74.6667 56.9833 74.6667 75 68" stroke="#C4C4C4"/>
<path d="M34 54C48.7572 58.0543 56.6165 57.9454 70 54" stroke="#C4C4C4"/>
<path d="M29 59C47 65.6667 56.75 65.6667 74 59" stroke="#C4C4C4"/>
<circle cx="58" cy="86" r="2.75" stroke="#4666C7" stroke-width="0.5"/>
<circle cx="40" cy="55" r="2.75" stroke="#4666C7" stroke-width="0.5"/>
<path d="M64.75 59.5C64.75 60.7019 63.5634 61.75 62 61.75C60.4366 61.75 59.25 60.7019 59.25 59.5C59.25 58.2981 60.4366 57.25 62 57.25C63.5634 57.25 64.75 58.2981 64.75 59.5Z" stroke="#FF8251" stroke-width="0.5"/>
<circle cx="43" cy="77" r="2.75" stroke="#FF8251" stroke-width="0.5"/>
<circle cx="63.5" cy="56.5" r="1.4" stroke="#4666C7" stroke-width="0.2"/>
<circle cx="41.5" cy="79.5" r="1.4" stroke="#4666C7" stroke-width="0.2"/>
<defs>
<linearGradient id="paint0_linear" x1="51.5" y1="108.719" x2="51.5" y2="131" gradientUnits="userSpaceOnUse">
<stop offset="0.0833333" stop-color="white"/>
<stop offset="0.473958" stop-color="white" stop-opacity="0"/>
</linearGradient>
</defs>
</svg>
