<svg width="70" height="90" viewBox="0 0 70 90" fill="none" xmlns="http://www.w3.org/2000/svg">
<path d="M66 82C66 82.5327 65.544 83.3266 63.9765 84.2531C62.4759 85.14 60.238 85.9734 57.3849 86.6867C51.6941 88.1094 43.7794 89 35 89C26.2206 89 18.3059 88.1094 12.6151 86.6867C9.76205 85.9734 7.52412 85.14 6.02355 84.2531C4.45603 83.3266 4 82.5327 4 82C4 81.4673 4.45603 80.6734 6.02355 79.7469C7.52412 78.86 9.76205 78.0266 12.6151 77.3133C18.3059 75.8906 26.2206 75 35 75C43.7794 75 51.6941 75.8906 57.3849 77.3133C60.238 78.0266 62.4759 78.86 63.9765 79.7469C65.544 80.6734 66 81.4673 66 82Z" stroke="#4666C7" stroke-opacity="0.8" stroke-width="2"/>
<path d="M66 82C66 82.5327 65.544 83.3266 63.9765 84.2531C62.4759 85.14 60.238 85.9734 57.3849 86.6867C51.6941 88.1094 43.7794 89 35 89C26.2206 89 18.3059 88.1094 12.6151 86.6867C9.76205 85.9734 7.52412 85.14 6.02355 84.2531C4.45603 83.3266 4 82.5327 4 82C4 81.4673 4.45603 80.6734 6.02355 79.7469C7.52412 78.86 9.76205 78.0266 12.6151 77.3133C18.3059 75.8906 26.2206 75 35 75C43.7794 75 51.6941 75.8906 57.3849 77.3133C60.238 78.0266 62.4759 78.86 63.9765 79.7469C65.544 80.6734 66 81.4673 66 82Z" stroke="url(#paint0_linear)" stroke-width="2"/>
<path fill-rule="evenodd" clip-rule="evenodd" d="M44.4487 8.74988C42.7619 5.87535 44.6445 2 47.9774 2C49.0866 2 50.1456 2.46192 50.9002 3.27482L62.6575 15.9409C64.6546 18.0924 63.73 21.5894 60.9038 22.383C58.4939 23.0596 56.1766 23.6507 53.9263 24.156C51.7822 24.6374 49.7171 23.2103 49.2102 21.0721C48.4434 17.8374 47.5585 15.078 46.3642 12.4393C45.7999 11.1926 45.1679 9.97545 44.4487 8.74988ZM62.4508 22.9819C65.0315 22.2355 67.6518 24.1222 67.6851 26.8084L67.7976 35.8775C67.8082 36.7273 67.5478 37.5583 67.0542 38.2501L38.5359 78.2257C36.9493 80.4497 33.6495 80.464 32.0436 78.2539L2.88126 38.1192C2.38468 37.4358 2.11722 36.6127 2.11722 35.7679V26.9345C2.11722 24.2558 4.70021 22.3374 7.28375 23.0451C17.8983 25.9524 26.6412 27.3968 35.2438 27.3865C43.8921 27.3762 52.3746 25.8959 62.4508 22.9819ZM68.5497 20.875C68.5288 20.8752 68.5185 20.8495 68.5339 20.8353C68.5431 20.8267 68.5437 20.8122 68.5351 20.8029L50.352 1.21442C50.3479 1.20993 50.3408 1.20967 50.3364 1.21384C50.3293 1.22042 50.3177 1.21539 50.3177 1.20572V1.07019C50.3177 1.03143 50.2863 1 50.2475 1H21.8342C21.549 1 21.3177 1.23125 21.3177 1.5165C21.3177 1.65786 21.2598 1.79304 21.1574 1.89052L1.24925 20.8507C1.23472 20.8645 1.21542 20.8722 1.19536 20.8722H1.19015C1.14987 20.8722 1.11722 20.9049 1.11722 20.9452C1.11722 20.9651 1.10904 20.9842 1.09459 20.998L1.05861 21.0322C0.983081 21.1042 0.980166 21.2237 1.0521 21.2993L1.0614 21.309C1.09724 21.3466 1.11722 21.3966 1.11722 21.4486V37.6564C1.11722 37.7915 1.2268 37.9011 1.36197 37.9011C1.44031 37.9011 1.51391 37.9386 1.55996 38.002L34.494 83.3275C34.5271 83.3731 34.5908 83.3831 34.6363 83.3501C34.7298 83.2822 34.8462 83.3976 34.7791 83.4916L34.7659 83.5103C34.732 83.5577 34.743 83.6237 34.7905 83.6575L35.1116 83.8866C35.3364 84.047 35.6486 83.9947 35.809 83.7699L68.8151 37.5037C68.8167 37.5014 68.8162 37.4983 68.814 37.4967L68.8114 37.4949C68.8083 37.4926 68.8098 37.4877 68.8137 37.4877C68.8159 37.4876 68.8176 37.4858 68.8176 37.4836L68.612 20.9079C68.6117 20.8893 68.5965 20.8744 68.5778 20.8746L68.5497 20.875ZM21.838 21.1575C21.4026 23.3456 19.3405 24.8563 17.1552 24.4071C14.6948 23.9014 12.1441 23.2982 9.47264 22.5969C6.4997 21.8166 5.60006 18.088 7.82582 15.9682L21.5115 2.93427C22.1412 2.33452 22.9776 2 23.8472 2C26.6983 2 28.2974 5.33722 26.8094 7.76921C25.9294 9.2075 25.1801 10.64 24.532 12.132C23.3588 14.8327 22.5231 17.7144 21.838 21.1575ZM35.2426 26.3865C32.2333 26.3901 29.2033 26.2134 26.0747 25.8547C23.8865 25.6039 22.3826 23.5507 22.8113 21.3902C23.4883 17.9787 24.3074 15.1588 25.4492 12.5304C26.7768 9.4743 28.5489 6.6583 31.0684 3.46324C31.8064 2.52746 32.9417 2 34.1334 2H36.5466C37.7588 2 38.9105 2.5462 39.6499 3.50677C42.2383 6.86933 44.0614 9.77656 45.4532 12.8516C46.596 15.3768 47.4532 18.0265 48.2009 21.1507C48.7217 23.3264 47.2468 25.4601 45.0278 25.7446C41.7211 26.1685 38.4922 26.3827 35.2426 26.3865Z" fill="#FA8654"/>
<path d="M46.3642 12.4393L45.9087 12.6455V12.6455L46.3642 12.4393ZM35.2438 27.3865L35.2432 26.8865L35.2438 27.3865ZM24.532 12.132L24.9906 12.3312V12.3312L24.532 12.132ZM35.2426 26.3865L35.2432 26.8865L35.2426 26.3865ZM25.4492 12.5304L25.9078 12.7297L25.4492 12.5304ZM45.4532 12.8516L44.9976 13.0578L45.4532 12.8516ZM48.2009 21.1507L47.7147 21.267L48.2009 21.1507ZM26.0747 25.8547L26.0178 26.3515L26.0747 25.8547ZM21.5115 2.93427L21.1667 2.5722L21.5115 2.93427ZM9.47264 22.5969L9.34569 23.0806L9.47264 22.5969ZM68.612 20.9079L68.112 20.9141L68.612 20.9079ZM68.5778 20.8746L68.584 21.3746L68.5778 20.8746ZM68.8176 37.4836L69.3176 37.4774L68.8176 37.4836ZM68.8114 37.4949L68.521 37.9019L68.8114 37.4949ZM68.8151 37.5037L69.2222 37.794L68.8151 37.5037ZM68.814 37.4967L68.5236 37.9037L68.814 37.4967ZM35.1116 83.8866L34.8212 84.2936L35.1116 83.8866ZM35.809 83.7699L36.216 84.0603L35.809 83.7699ZM34.7659 83.5103L35.1729 83.8006L34.7659 83.5103ZM34.7905 83.6575L35.0809 83.2505L34.7905 83.6575ZM34.7791 83.4916L35.1862 83.782L34.7791 83.4916ZM34.494 83.3275L34.8985 83.0336L34.494 83.3275ZM1.0614 21.309L1.42347 20.9642L1.0614 21.309ZM1.05861 21.0322L0.713783 20.6702L1.05861 21.0322ZM1.0521 21.2993L1.41417 20.9544L1.0521 21.2993ZM1.09459 20.998L0.749762 20.6359L1.09459 20.998ZM1.24925 20.8507L0.904419 20.4886L1.24925 20.8507ZM21.1574 1.89052L21.5023 2.25259L21.1574 1.89052ZM50.352 1.21442L50.7185 0.874257L50.352 1.21442ZM2.88126 38.1192L3.28576 37.8253L2.88126 38.1192ZM38.5359 78.2257L38.9429 78.516L38.5359 78.2257ZM32.0436 78.2539L31.6391 78.5478L32.0436 78.2539ZM67.6851 26.8084L68.1851 26.8022L67.6851 26.8084ZM62.4508 22.9819L62.3119 22.5015L62.4508 22.9819ZM53.9263 24.156L53.8167 23.6681L53.9263 24.156ZM49.2102 21.0721L48.7237 21.1875L49.2102 21.0721ZM62.6575 15.9409L62.2911 16.2811L62.6575 15.9409ZM68.5351 20.8029L68.9015 20.4628L68.5351 20.8029ZM1.55996 38.002L1.96446 37.7081L1.55996 38.002ZM67.7976 35.8775L68.2976 35.8713L67.7976 35.8775ZM67.0542 38.2501L67.4613 38.5405L67.0542 38.2501ZM68.5497 20.875L68.5559 21.3749L68.5497 20.875ZM50.9002 3.27482L50.5337 3.61498L50.9002 3.27482ZM63.024 15.6008L51.2666 2.93466L50.5337 3.61498L62.2911 16.2811L63.024 15.6008ZM54.0358 24.6438C56.2959 24.1363 58.6218 23.543 61.039 22.8643L60.7686 21.9016C58.3661 22.5762 56.0574 23.165 53.8167 23.6681L54.0358 24.6438ZM45.9087 12.6455C47.0865 15.2479 47.9623 17.9753 48.7237 21.1875L49.6967 20.9568C48.9246 17.6995 48.0304 14.9081 46.8197 12.2331L45.9087 12.6455ZM44.0175 9.00293C44.7281 10.2139 45.352 11.4155 45.9087 12.6455L46.8197 12.2331C46.2479 10.9698 45.6076 9.73697 44.8799 8.49683L44.0175 9.00293ZM68.2976 35.8713L68.1851 26.8022L67.1851 26.8146L67.2976 35.8837L68.2976 35.8713ZM66.6472 37.9598L38.1288 77.9353L38.9429 78.516L67.4613 38.5405L66.6472 37.9598ZM32.4481 77.96L3.28576 37.8253L2.47677 38.4131L31.6391 78.5478L32.4481 77.96ZM2.61722 35.7679V26.9345H1.61722V35.7679H2.61722ZM7.15167 23.5273C17.793 26.442 26.5826 27.8969 35.2444 27.8865L35.2432 26.8865C26.6997 26.8967 18.0035 25.4628 7.41584 22.5628L7.15167 23.5273ZM35.2444 27.8865C43.9532 27.8762 52.484 26.3848 62.5897 23.4622L62.3119 22.5015C52.2653 25.407 43.831 26.8763 35.2432 26.8865L35.2444 27.8865ZM68.9015 20.4628L50.7185 0.874257L49.9856 1.55458L68.1686 21.1431L68.9015 20.4628ZM50.8177 1.20572V1.07019H49.8177V1.20572H50.8177ZM50.2475 0.5H21.8342V1.5H50.2475V0.5ZM20.8126 1.52845L0.904419 20.4886L1.59407 21.2128L21.5023 2.25259L20.8126 1.52845ZM1.19536 20.3722H1.19015V21.3722H1.19536V20.3722ZM0.749762 20.6359L0.713783 20.6702L1.40344 21.3943L1.43942 21.36L0.749762 20.6359ZM0.69003 21.6441L0.699333 21.6538L1.42347 20.9642L1.41417 20.9544L0.69003 21.6441ZM0.617223 21.4486V37.6564H1.61722V21.4486H0.617223ZM1.15547 38.2959L34.0895 83.6215L34.8985 83.0336L1.96446 37.7081L1.15547 38.2959ZM34.3721 83.2013L34.3588 83.2199L35.1729 83.8006L35.1862 83.782L34.3721 83.2013ZM34.5001 84.0646L34.8212 84.2936L35.4019 83.4796L35.0809 83.2505L34.5001 84.0646ZM36.216 84.0603L69.2222 37.794L68.4081 37.2133L35.402 83.4796L36.216 84.0603ZM69.1044 37.0897L69.1018 37.0879L68.521 37.9019L68.5236 37.9037L69.1044 37.0897ZM68.112 20.9141L68.3177 37.4898L69.3176 37.4774L69.1119 20.9017L68.112 20.9141ZM68.5559 21.3749L68.584 21.3746L68.5716 20.3747L68.5435 20.375L68.5559 21.3749ZM9.34569 23.0806C12.0246 23.7838 14.5842 24.3891 17.0545 24.8969L17.2559 23.9173C14.8055 23.4137 12.2636 22.8126 9.59959 22.1133L9.34569 23.0806ZM21.1667 2.5722L7.48099 15.6062L8.17065 16.3303L21.8563 3.29634L21.1667 2.5722ZM24.9906 12.3312C25.629 10.8617 26.3674 9.44972 27.2359 8.03016L26.3829 7.50826C25.4915 8.96528 24.7312 10.4184 24.0734 11.9328L24.9906 12.3312ZM22.3284 21.2551C23.0087 17.8364 23.8353 14.9907 24.9906 12.3312L24.0734 11.9328C22.8823 14.6747 22.0376 17.5924 21.3476 21.0599L22.3284 21.2551ZM26.0178 26.3515C29.1644 26.7122 32.2136 26.8902 35.2432 26.8865L35.2421 25.8865C32.2529 25.8901 29.2422 25.7146 26.1317 25.358L26.0178 26.3515ZM24.9906 12.3312C23.8308 15.001 23.0027 17.857 22.3209 21.2929L23.3018 21.4875C23.9739 18.1004 24.7839 15.3167 25.9078 12.7297L24.9906 12.3312ZM30.6758 3.15363C28.1375 6.37254 26.3398 9.22545 24.9906 12.3312L25.9078 12.7297C27.2138 9.72315 28.9603 6.94406 31.461 3.77284L30.6758 3.15363ZM36.5466 1.5H34.1334V2.5H36.5466V1.5ZM45.9087 12.6455C44.4968 9.52604 42.6509 6.58564 40.0461 3.20179L39.2537 3.81176C41.8257 7.15302 43.626 10.0271 44.9976 13.0578L45.9087 12.6455ZM48.6872 21.0343C47.9341 17.8875 47.0677 15.2063 45.9087 12.6455L44.9976 13.0578C46.1244 15.5473 46.9723 18.1655 47.7147 21.267L48.6872 21.0343ZM35.2432 26.8865C38.5147 26.8826 41.7647 26.667 45.0914 26.2405L44.9642 25.2487C41.6776 25.67 38.4696 25.8827 35.2421 25.8865L35.2432 26.8865ZM47.7147 21.267C48.1661 23.1532 46.8887 25.0019 44.9642 25.2487L45.0914 26.2405C47.6049 25.9183 49.2772 23.4996 48.6872 21.0343L47.7147 21.267ZM36.5466 2.5C37.6095 2.5 38.6125 2.97874 39.2537 3.81176L40.0461 3.20179C39.2085 2.11366 37.9081 1.5 36.5466 1.5V2.5ZM31.461 3.77284C32.1001 2.96245 33.0881 2.5 34.1334 2.5V1.5C32.7952 1.5 31.5126 2.09246 30.6758 3.15363L31.461 3.77284ZM26.1317 25.358C24.2327 25.1403 22.9302 23.3603 23.3018 21.4875L22.3209 21.2929C21.8351 23.7411 23.5403 26.0675 26.0178 26.3515L26.1317 25.358ZM23.8472 2.5C26.2451 2.5 27.7006 5.35468 26.3829 7.50826L27.2359 8.03016C28.8943 5.31977 27.1514 1.5 23.8472 1.5V2.5ZM21.8563 3.29634C22.3931 2.78514 23.1059 2.5 23.8472 2.5V1.5C22.8492 1.5 21.8894 1.88391 21.1667 2.5722L21.8563 3.29634ZM17.0545 24.8969C19.5378 25.4073 21.8442 23.6882 22.3284 21.2551L21.3476 21.0599C20.961 23.003 19.1432 24.3053 17.2559 23.9173L17.0545 24.8969ZM9.59959 22.1133C7.01991 21.4362 6.21737 18.1906 8.17065 16.3303L7.48099 15.6062C4.98276 17.9854 5.97949 22.1969 9.34569 23.0806L9.59959 22.1133ZM69.1119 20.9017C69.1083 20.607 68.8664 20.371 68.5716 20.3747L68.584 21.3746C68.3265 21.3778 68.1152 21.1716 68.112 20.9141L69.1119 20.9017ZM68.8198 37.9876C69.0982 37.9842 69.321 37.7557 69.3176 37.4774L68.3177 37.4898C68.3143 37.216 68.5335 36.9911 68.8075 36.9877L68.8198 37.9876ZM69.1018 37.0879C69.4922 37.3664 69.2994 37.9817 68.8198 37.9876L68.8075 36.9877C68.3203 36.9937 68.1244 37.6189 68.521 37.9019L69.1018 37.0879ZM69.2222 37.794C69.3842 37.5669 69.3313 37.2516 69.1044 37.0897L68.5236 37.9037C68.3011 37.745 68.2493 37.4359 68.4081 37.2133L69.2222 37.794ZM34.8212 84.2936C35.2708 84.6144 35.8953 84.5099 36.216 84.0603L35.402 83.4796H35.4019L34.8212 84.2936ZM34.3588 83.2199C34.1646 83.4921 34.2278 83.8703 34.5001 84.0646L35.0809 83.2505C35.2582 83.377 35.2994 83.6233 35.1729 83.8006L34.3588 83.2199ZM34.9302 83.7546C34.565 84.0199 34.1099 83.5687 34.3721 83.2013L35.1862 83.782C35.5825 83.2265 34.8945 82.5444 34.3424 82.9456L34.9302 83.7546ZM34.0895 83.6215C34.2849 83.8904 34.6613 83.95 34.9302 83.7546L34.3424 82.9456C34.5203 82.8163 34.7693 82.8557 34.8985 83.0336L34.0895 83.6215ZM0.699333 21.6538C0.646623 21.5985 0.617223 21.525 0.617223 21.4486H1.61722C1.61722 21.2682 1.54785 21.0948 1.42347 20.9642L0.699333 21.6538ZM0.713783 20.6702C0.438289 20.9326 0.427654 21.3686 0.69003 21.6441L1.41417 20.9544C1.53268 21.0789 1.52787 21.2758 1.40344 21.3943L0.713783 20.6702ZM0.617223 20.9452C0.617223 20.8283 0.665125 20.7165 0.749762 20.6359L1.43942 21.36C1.55296 21.2519 1.61722 21.102 1.61722 20.9452H0.617223ZM1.19015 20.3722C0.87373 20.3722 0.617223 20.6288 0.617223 20.9452H1.61722C1.61722 21.181 1.42602 21.3722 1.19015 21.3722V20.3722ZM0.904419 20.4886C0.982865 20.4139 1.08704 20.3722 1.19536 20.3722V21.3722C1.3438 21.3722 1.48657 21.3151 1.59407 21.2128L0.904419 20.4886ZM20.8177 1.5165C20.8177 1.52102 20.8159 1.52534 20.8126 1.52845L21.5023 2.25259C21.7037 2.06073 21.8177 1.7947 21.8177 1.5165H20.8177ZM21.8342 0.5C21.2728 0.5 20.8177 0.955104 20.8177 1.5165H21.8177C21.8177 1.50739 21.8251 1.5 21.8342 1.5V0.5ZM50.8177 1.07019C50.8177 0.755284 50.5625 0.5 50.2475 0.5V1.5C50.0102 1.5 49.8177 1.30757 49.8177 1.07019H50.8177ZM49.9962 0.847382C50.3091 0.556974 50.8177 0.778849 50.8177 1.20572H49.8177C49.8177 1.65193 50.3495 1.88386 50.6765 1.58029L49.9962 0.847382ZM50.7185 0.874257C50.5264 0.667386 50.2031 0.655351 49.9962 0.847382L50.6765 1.58029C50.4786 1.764 50.1693 1.75248 49.9856 1.55458L50.7185 0.874257ZM2.61722 26.9345C2.61722 24.5951 4.87719 22.9043 7.15167 23.5273L7.41584 22.5628C4.52322 21.7705 1.61722 23.9165 1.61722 26.9345H2.61722ZM3.28576 37.8253C2.85125 37.2273 2.61722 36.5071 2.61722 35.7679H1.61722C1.61722 36.7183 1.91811 37.6443 2.47677 38.4131L3.28576 37.8253ZM38.1288 77.9353C36.7405 79.8813 33.8533 79.8939 32.4481 77.96L31.6391 78.5478C33.4457 81.0342 37.158 81.0181 38.9429 78.516L38.1288 77.9353ZM68.1851 26.8022C68.1475 23.7752 65.1997 21.6664 62.3119 22.5015L62.5897 23.4622C64.8632 22.8047 67.156 24.4692 67.1851 26.8146L68.1851 26.8022ZM53.8167 23.6681C51.9654 24.0838 50.1467 22.8548 49.6967 20.9568L48.7237 21.1875C49.2875 23.5658 51.599 25.191 54.0358 24.6438L53.8167 23.6681ZM62.2911 16.2811C64.0434 18.1689 63.2209 21.213 60.7686 21.9016L61.039 22.8643C64.239 21.9658 65.2657 18.0158 63.024 15.6008L62.2911 16.2811ZM68.874 21.2017C69.0857 21.0053 69.098 20.6744 68.9015 20.4628L68.1686 21.1431C67.9894 20.95 68.0006 20.6481 68.1937 20.4688L68.874 21.2017ZM1.36197 38.4011C1.28026 38.4011 1.2035 38.362 1.15547 38.2959L1.96446 37.7081C1.82433 37.5152 1.60035 37.4011 1.36197 37.4011V38.4011ZM47.9774 1.5C44.1933 1.5 42.1688 5.85257 44.0175 9.00293L44.8799 8.49683C43.355 5.89814 45.0958 2.5 47.9774 2.5V1.5ZM67.2976 35.8837C67.3069 36.6272 67.079 37.3544 66.6472 37.9598L67.4613 38.5405C68.0165 37.7622 68.3094 36.8273 68.2976 35.8713L67.2976 35.8837ZM68.1937 20.4688C67.843 20.7944 68.0775 21.3809 68.5559 21.3749L68.5435 20.375C68.98 20.3696 69.194 20.9047 68.874 21.2017L68.1937 20.4688ZM0.617223 37.6564C0.617223 38.0677 0.950652 38.4011 1.36197 38.4011V37.4011C1.50294 37.4011 1.61722 37.5154 1.61722 37.6564H0.617223ZM47.9774 2.5C48.9475 2.5 49.8737 2.904 50.5337 3.61498L51.2666 2.93466C50.4174 2.01984 49.2256 1.5 47.9774 1.5V2.5Z" fill="#FA8654"/>
<circle cx="28" cy="55" r="0.9" stroke="#4666C7" stroke-width="0.2"/>
<path d="M19 52C31.8 56 38.7333 56 51 52" stroke="#C4C4C4"/>
<path d="M51 48C51 56.8366 43.8366 64 35 64C26.1634 64 19 56.8366 19 48C19 39.1634 26.1634 32 35 32C43.8366 32 51 39.1634 51 48Z" stroke="#C4C4C4" stroke-width="2"/>
<path d="M35 32C43.1992 45.8434 42.7983 52.7843 35 64" stroke="#C4C4C4"/>
<path d="M35 32C26.8008 45.8434 27.2017 52.7843 35 64" stroke="#C4C4C4"/>
<path d="M35 32C49.5 42 47.5 56 35 64" stroke="#C4C4C4"/>
<path d="M35 32C49.5 42 47.5 56 35 64" stroke="#C4C4C4"/>
<path d="M22 57C33.0679 59.7028 38.9624 59.6302 49 57" stroke="#C4C4C4"/>
<circle cx="38" cy="57" r="0.9" stroke="#FF8251" stroke-width="0.2"/>
<path d="M35 32C20.6986 42 22.6712 56 35 64" stroke="#C4C4C4"/>
<path d="M19 47C31.8 51 38.7333 51 51 47" stroke="#C4C4C4"/>
<path d="M23 37C32.8381 39.9708 38.0777 39.891 47 37" stroke="#C4C4C4"/>
<path d="M20 41C32 45 38.5 45 50 41" stroke="#C4C4C4"/>
<circle cx="39" cy="59" r="1.75" stroke="#4666C7" stroke-width="0.5"/>
<circle cx="27" cy="38" r="1.75" stroke="#4666C7" stroke-width="0.5"/>
<circle cx="42" cy="41" r="1.75" stroke="#FF8251" stroke-width="0.5"/>
<circle cx="29" cy="53" r="1.75" stroke="#FF8251" stroke-width="0.5"/>
<circle cx="43" cy="39" r="0.9" stroke="#4666C7" stroke-width="0.2"/>
<circle cx="28" cy="55" r="0.9" stroke="#4666C7" stroke-width="0.2"/>
<defs>
<linearGradient id="paint0_linear" x1="35" y1="74.5" x2="35" y2="90" gradientUnits="userSpaceOnUse">
<stop offset="0.0833333" stop-color="white"/>
<stop offset="0.473958" stop-color="white" stop-opacity="0"/>
</linearGradient>
</defs>
</svg>
