<svg width="878" height="123" viewBox="0 0 878 123" fill="none" xmlns="http://www.w3.org/2000/svg">
<line y1="122.5" x2="878" y2="122.5" stroke="#C4C4C4"/>
<path d="M79.288 1.8C87.992 1.8 94.84 3.88 99.832 8.04C104.824 12.2 107.32 17.928 107.32 25.224C107.32 32.52 104.824 38.248 99.832 42.408C94.84 46.568 87.992 48.648 79.288 48.648H62.68V69H53.08V1.8H79.288ZM79 40.296C85.08 40.296 89.72 39.016 92.92 36.456C96.12 33.832 97.72 30.088 97.72 25.224C97.72 20.36 96.12 16.648 92.92 14.088C89.72 11.464 85.08 10.152 79 10.152H62.68V40.296H79ZM122.361 1.8H131.961V60.648H168.345V69H122.361V1.8ZM228.129 60.648V69H179.361V1.8H226.785V10.152H188.961V30.792H222.657V38.952H188.961V60.648H228.129ZM286.49 52.2H250.778L243.386 69H233.498L263.93 1.8H273.434L303.962 69H293.882L286.49 52.2ZM283.13 44.52L268.634 11.592L254.138 44.52H283.13ZM333.57 69.768C328.514 69.768 323.618 69 318.882 67.464C314.21 65.864 310.53 63.816 307.842 61.32L311.394 53.832C313.954 56.136 317.218 58.024 321.186 59.496C325.218 60.904 329.346 61.608 333.57 61.608C339.138 61.608 343.298 60.68 346.05 58.824C348.802 56.904 350.178 54.376 350.178 51.24C350.178 48.936 349.41 47.08 347.874 45.672C346.402 44.2 344.546 43.08 342.306 42.312C340.13 41.544 337.026 40.68 332.994 39.72C327.938 38.504 323.842 37.288 320.706 36.072C317.634 34.856 314.978 33 312.738 30.504C310.562 27.944 309.474 24.52 309.474 20.232C309.474 16.648 310.402 13.416 312.258 10.536C314.178 7.656 317.058 5.352 320.898 3.62399C324.738 1.896 329.506 1.032 335.202 1.032C339.17 1.032 343.074 1.544 346.914 2.568C350.754 3.592 354.05 5.064 356.802 6.984L353.634 14.664C350.818 12.872 347.81 11.528 344.61 10.632C341.41 9.672 338.274 9.192 335.202 9.192C329.762 9.192 325.666 10.184 322.914 12.168C320.226 14.152 318.882 16.712 318.882 19.848C318.882 22.152 319.65 24.04 321.186 25.512C322.722 26.92 324.61 28.04 326.85 28.872C329.154 29.64 332.258 30.472 336.162 31.368C341.218 32.584 345.282 33.8 348.354 35.016C351.426 36.232 354.05 38.088 356.226 40.584C358.466 43.08 359.586 46.44 359.586 50.664C359.586 54.184 358.626 57.416 356.706 60.36C354.786 63.24 351.874 65.544 347.97 67.272C344.066 68.936 339.266 69.768 333.57 69.768ZM401.451 69.768C392.491 69.768 385.515 67.208 380.523 62.088C375.531 56.968 373.035 49.608 373.035 40.008V1.8H382.635V39.624C382.635 54.024 388.939 61.224 401.547 61.224C407.691 61.224 412.395 59.464 415.659 55.944C418.923 52.36 420.555 46.92 420.555 39.624V1.8H429.867V40.008C429.867 49.672 427.371 57.064 422.379 62.184C417.387 67.24 410.411 69.768 401.451 69.768ZM494.477 69L479.981 48.36C478.189 48.488 476.781 48.552 475.757 48.552H459.149V69H449.549V1.8H475.757C484.461 1.8 491.309 3.88 496.301 8.04C501.293 12.2 503.789 17.928 503.789 25.224C503.789 30.408 502.509 34.824 499.949 38.472C497.389 42.12 493.741 44.776 489.005 46.44L504.941 69H494.477ZM475.469 40.392C481.549 40.392 486.189 39.08 489.389 36.456C492.589 33.832 494.189 30.088 494.189 25.224C494.189 20.36 492.589 16.648 489.389 14.088C486.189 11.464 481.549 10.152 475.469 10.152H459.149V40.392H475.469ZM568.067 60.648V69H519.299V1.8H566.723V10.152H528.899V30.792H562.595V38.952H528.899V60.648H568.067ZM583.611 1.8H593.211V60.648H629.595V69H583.611V1.8ZM683.427 52.2H647.715L640.323 69H630.435L660.867 1.8H670.371L700.899 69H690.819L683.427 52.2ZM680.067 44.52L665.571 11.592L651.075 44.52H680.067ZM768.716 1.8V69H760.844L720.524 18.888V69H710.924V1.8H718.796L759.116 51.912V1.8H768.716ZM788.83 1.8H817.15C824.254 1.8 830.558 3.208 836.062 6.024C841.566 8.84 845.822 12.808 848.83 17.928C851.902 22.984 853.438 28.808 853.438 35.4C853.438 41.992 851.902 47.848 848.83 52.968C845.822 58.024 841.566 61.96 836.062 64.776C830.558 67.592 824.254 69 817.15 69H788.83V1.8ZM816.574 60.648C822.014 60.648 826.782 59.592 830.878 57.48C835.038 55.368 838.238 52.424 840.478 48.648C842.718 44.808 843.838 40.392 843.838 35.4C843.838 30.408 842.718 26.024 840.478 22.248C838.238 18.408 835.038 15.432 830.878 13.32C826.782 11.208 822.014 10.152 816.574 10.152H798.43V60.648H816.574Z" fill="#415BB2"/>
<path d="M62.68 48.648V47.648H61.68V48.648H62.68ZM62.68 69V70H63.68V69H62.68ZM53.08 69H52.08V70H53.08V69ZM53.08 1.8V0.799995H52.08V1.8H53.08ZM92.92 36.456L93.5447 37.2369L93.5541 37.2293L92.92 36.456ZM92.92 14.088L92.2859 14.8613L92.2953 14.8689L92.92 14.088ZM62.68 10.152V9.15199H61.68V10.152H62.68ZM62.68 40.296H61.68V41.296H62.68V40.296ZM79.288 2.8C87.8378 2.8 94.4325 4.84215 99.1918 8.80822L100.472 7.27177C95.2475 2.91784 88.1462 0.799995 79.288 0.799995V2.8ZM99.1918 8.80822C103.926 12.7534 106.32 18.1837 106.32 25.224H108.32C108.32 17.6722 105.722 11.6466 100.472 7.27177L99.1918 8.80822ZM106.32 25.224C106.32 32.2642 103.926 37.6946 99.1918 41.6398L100.472 43.1762C105.722 38.8014 108.32 32.7758 108.32 25.224H106.32ZM99.1918 41.6398C94.4325 45.6058 87.8378 47.648 79.288 47.648V49.648C88.1462 49.648 95.2475 47.5302 100.472 43.1762L99.1918 41.6398ZM79.288 47.648H62.68V49.648H79.288V47.648ZM61.68 48.648V69H63.68V48.648H61.68ZM62.68 68H53.08V70H62.68V68ZM54.08 69V1.8H52.08V69H54.08ZM53.08 2.8H79.288V0.799995H53.08V2.8ZM79 41.296C85.2014 41.296 90.0995 39.993 93.5447 37.2369L92.2953 35.6751C89.3405 38.039 84.9586 39.296 79 39.296V41.296ZM93.5541 37.2293C97.0274 34.3811 98.72 30.3291 98.72 25.224H96.72C96.72 29.8469 95.2126 33.2829 92.2859 35.6827L93.5541 37.2293ZM98.72 25.224C98.72 20.1195 97.0273 16.0932 93.5447 13.3071L92.2953 14.8689C95.2127 17.2028 96.72 20.6005 96.72 25.224H98.72ZM93.5541 13.3147C90.1081 10.489 85.2061 9.15199 79 9.15199V11.152C84.9539 11.152 89.3319 12.439 92.2859 14.8613L93.5541 13.3147ZM79 9.15199H62.68V11.152H79V9.15199ZM61.68 10.152V40.296H63.68V10.152H61.68ZM62.68 41.296H79V39.296H62.68V41.296ZM122.361 1.8V0.799995H121.361V1.8H122.361ZM131.961 1.8H132.961V0.799995H131.961V1.8ZM131.961 60.648H130.961V61.648H131.961V60.648ZM168.345 60.648H169.345V59.648H168.345V60.648ZM168.345 69V70H169.345V69H168.345ZM122.361 69H121.361V70H122.361V69ZM122.361 2.8H131.961V0.799995H122.361V2.8ZM130.961 1.8V60.648H132.961V1.8H130.961ZM131.961 61.648H168.345V59.648H131.961V61.648ZM167.345 60.648V69H169.345V60.648H167.345ZM168.345 68H122.361V70H168.345V68ZM123.361 69V1.8H121.361V69H123.361ZM228.129 60.648H229.129V59.648H228.129V60.648ZM228.129 69V70H229.129V69H228.129ZM179.361 69H178.361V70H179.361V69ZM179.361 1.8V0.799995H178.361V1.8H179.361ZM226.785 1.8H227.785V0.799995H226.785V1.8ZM226.785 10.152V11.152H227.785V10.152H226.785ZM188.961 10.152V9.15199H187.961V10.152H188.961ZM188.961 30.792H187.961V31.792H188.961V30.792ZM222.657 30.792H223.657V29.792H222.657V30.792ZM222.657 38.952V39.952H223.657V38.952H222.657ZM188.961 38.952V37.952H187.961V38.952H188.961ZM188.961 60.648H187.961V61.648H188.961V60.648ZM227.129 60.648V69H229.129V60.648H227.129ZM228.129 68H179.361V70H228.129V68ZM180.361 69V1.8H178.361V69H180.361ZM179.361 2.8H226.785V0.799995H179.361V2.8ZM225.785 1.8V10.152H227.785V1.8H225.785ZM226.785 9.15199H188.961V11.152H226.785V9.15199ZM187.961 10.152V30.792H189.961V10.152H187.961ZM188.961 31.792H222.657V29.792H188.961V31.792ZM221.657 30.792V38.952H223.657V30.792H221.657ZM222.657 37.952H188.961V39.952H222.657V37.952ZM187.961 38.952V60.648H189.961V38.952H187.961ZM188.961 61.648H228.129V59.648H188.961V61.648ZM286.49 52.2L287.405 51.7973L287.142 51.2H286.49V52.2ZM250.778 52.2V51.2H250.125L249.862 51.7973L250.778 52.2ZM243.386 69V70H244.038L244.301 69.4027L243.386 69ZM233.498 69L232.587 68.5875L231.947 70H233.498V69ZM263.93 1.8V0.799995H263.285L263.019 1.38747L263.93 1.8ZM273.434 1.8L274.344 1.38639L274.078 0.799995H273.434V1.8ZM303.962 69V70H305.514L304.872 68.5864L303.962 69ZM293.882 69L292.966 69.4027L293.229 70H293.882V69ZM283.13 44.52V45.52H284.663L284.045 44.1171L283.13 44.52ZM268.634 11.592L269.549 11.1891L268.634 9.1101L267.719 11.1891L268.634 11.592ZM254.138 44.52L253.223 44.1171L252.605 45.52H254.138V44.52ZM286.49 51.2H250.778V53.2H286.49V51.2ZM249.862 51.7973L242.47 68.5973L244.301 69.4027L251.693 52.6027L249.862 51.7973ZM243.386 68H233.498V70H243.386V68ZM234.409 69.4125L264.841 2.21252L263.019 1.38747L232.587 68.5875L234.409 69.4125ZM263.93 2.8H273.434V0.799995H263.93V2.8ZM272.523 2.2136L303.051 69.4136L304.872 68.5864L274.344 1.38639L272.523 2.2136ZM303.962 68H293.882V70H303.962V68ZM294.797 68.5973L287.405 51.7973L285.574 52.6027L292.966 69.4027L294.797 68.5973ZM284.045 44.1171L269.549 11.1891L267.719 11.9949L282.215 44.9229L284.045 44.1171ZM267.719 11.1891L253.223 44.1171L255.053 44.9229L269.549 11.9949L267.719 11.1891ZM254.138 45.52H283.13V43.52H254.138V45.52ZM318.882 67.464L318.558 68.4101L318.566 68.4127L318.574 68.4152L318.882 67.464ZM307.842 61.32L306.939 60.8914L306.625 61.5539L307.162 62.0528L307.842 61.32ZM311.394 53.832L312.063 53.0887L311.066 52.1911L310.491 53.4034L311.394 53.832ZM321.186 59.496L320.838 60.4336L320.847 60.4369L320.857 60.4401L321.186 59.496ZM346.05 58.824L346.609 59.6531L346.616 59.6487L346.622 59.6441L346.05 58.824ZM347.874 45.672L347.167 46.3791L347.183 46.3945L347.199 46.4092L347.874 45.672ZM342.306 42.312L341.973 43.255L341.982 43.2579L342.306 42.312ZM332.994 39.72L332.76 40.6923L332.763 40.6928L332.994 39.72ZM320.706 36.072L320.338 37.0018L320.345 37.0044L320.706 36.072ZM312.738 30.504L311.976 31.1516L311.985 31.1619L311.994 31.1719L312.738 30.504ZM312.258 10.536L311.426 9.9813L311.422 9.98776L311.418 9.99429L312.258 10.536ZM320.898 3.62399L320.488 2.71207L320.898 3.62399ZM356.802 6.98399L357.727 7.36533L358.033 6.62321L357.374 6.16387L356.802 6.98399ZM353.634 14.664L353.097 15.5077L354.104 16.1481L354.559 15.0453L353.634 14.664ZM344.61 10.632L344.323 11.5898L344.332 11.5925L344.341 11.595L344.61 10.632ZM322.914 12.168L322.329 11.3568L322.32 11.3634L322.914 12.168ZM321.186 25.512L320.494 26.234L320.502 26.2417L320.511 26.2492L321.186 25.512ZM326.85 28.872L326.502 29.8094L326.518 29.8153L326.534 29.8207L326.85 28.872ZM336.162 31.368L336.396 30.3957L336.386 30.3933L336.162 31.368ZM348.354 35.016L347.986 35.9458L348.354 35.016ZM356.226 40.584L355.472 41.2411L355.477 41.2466L355.482 41.2519L356.226 40.584ZM356.706 60.36L357.538 60.9147L357.544 60.9063L356.706 60.36ZM347.97 67.272L348.362 68.192L348.375 68.1864L347.97 67.272ZM333.57 68.768C328.617 68.768 323.826 68.016 319.191 66.5128L318.574 68.4152C323.411 69.984 328.411 70.768 333.57 70.768V68.768ZM319.206 66.5179C314.623 64.9484 311.079 62.961 308.523 60.5872L307.162 62.0528C309.981 64.671 313.797 66.7796 318.558 68.4101L319.206 66.5179ZM308.746 61.7486L312.298 54.2606L310.491 53.4034L306.939 60.8914L308.746 61.7486ZM310.725 54.5753C313.398 56.9806 316.778 58.9274 320.838 60.4336L321.534 58.5584C317.658 57.1206 314.511 55.2914 312.063 53.0887L310.725 54.5753ZM320.857 60.4401C324.993 61.8847 329.233 62.608 333.57 62.608V60.608C329.46 60.608 325.443 59.9233 321.516 58.5519L320.857 60.4401ZM333.57 62.608C339.216 62.608 343.614 61.673 346.609 59.6531L345.491 57.9949C342.982 59.687 339.06 60.608 333.57 60.608V62.608ZM346.622 59.6441C349.62 57.5525 351.178 54.7289 351.178 51.24H349.178C349.178 54.0231 347.984 56.2555 345.478 58.0039L346.622 59.6441ZM351.178 51.24C351.178 48.6887 350.316 46.5534 348.55 44.9348L347.199 46.4092C348.505 47.6066 349.178 49.1833 349.178 51.24H351.178ZM348.581 44.9649C346.988 43.3712 344.995 42.1766 342.631 41.3661L341.982 43.2579C344.098 43.9834 345.817 45.0288 347.167 46.3791L348.581 44.9649ZM342.639 41.369C340.414 40.5836 337.27 39.71 333.226 38.7472L332.763 40.6928C336.783 41.65 339.847 42.5044 341.973 43.255L342.639 41.369ZM333.228 38.7477C328.195 37.5372 324.146 36.3333 321.068 35.1396L320.345 37.0044C323.538 38.2427 327.682 39.4708 332.76 40.6923L333.228 38.7477ZM321.074 35.1422C318.149 33.9841 315.621 32.2186 313.482 29.8361L311.994 31.1719C314.336 33.7814 317.12 35.7279 320.338 37.0018L321.074 35.1422ZM313.5 29.8563C311.516 27.5225 310.474 24.3499 310.474 20.232H308.474C308.474 24.6901 309.608 28.3655 311.976 31.1516L313.5 29.8563ZM310.474 20.232C310.474 16.8308 311.352 13.7885 313.099 11.0777L311.418 9.99429C309.453 13.0434 308.474 16.4652 308.474 20.232H310.474ZM313.09 11.0907C314.886 8.39785 317.603 6.20358 321.309 4.53592L320.488 2.71207C316.514 4.5004 313.471 6.91415 311.426 9.9813L313.09 11.0907ZM321.309 4.53592C324.983 2.88262 329.601 2.032 335.202 2.032V0.0319977C329.412 0.0319977 324.494 0.90937 320.488 2.71207L321.309 4.53592ZM335.202 2.032C339.083 2.032 342.901 2.53262 346.657 3.53423L347.172 1.60176C343.248 0.555382 339.257 0.0319977 335.202 0.0319977V2.032ZM346.657 3.53423C350.404 4.53362 353.589 5.96179 356.23 7.80412L357.374 6.16387C354.511 4.1662 351.104 2.65038 347.172 1.60176L346.657 3.53423ZM355.878 6.60267L352.71 14.2827L354.559 15.0453L357.727 7.36533L355.878 6.60267ZM354.171 13.8203C351.273 11.9759 348.175 10.5916 344.88 9.66903L344.341 11.595C347.446 12.4644 350.364 13.7681 353.097 15.5077L354.171 13.8203ZM344.898 9.67417C341.612 8.68864 338.38 8.192 335.202 8.192V10.192C338.169 10.192 341.208 10.6554 344.323 11.5898L344.898 9.67417ZM335.202 8.192C329.669 8.192 325.327 9.19598 322.329 11.3568L323.499 12.9792C326.006 11.172 329.855 10.192 335.202 10.192V8.192ZM322.32 11.3634C319.396 13.5216 317.882 16.3711 317.882 19.848H319.882C319.882 17.0529 321.056 14.7824 323.508 12.9726L322.32 11.3634ZM317.882 19.848C317.882 22.3995 318.744 24.5567 320.494 26.234L321.878 24.79C320.556 23.5233 319.882 21.9045 319.882 19.848H317.882ZM320.511 26.2492C322.155 27.7563 324.159 28.939 326.502 29.8094L327.198 27.9346C325.062 27.141 323.29 26.0837 321.862 24.7748L320.511 26.2492ZM326.534 29.8207C328.882 30.6032 332.021 31.4434 335.939 32.3427L336.386 30.3933C332.496 29.5006 329.427 28.6768 327.166 27.9233L326.534 29.8207ZM335.928 32.3403C340.961 33.5508 344.975 34.754 347.986 35.9458L348.722 34.0862C345.589 32.846 341.475 31.6172 336.396 30.3957L335.928 32.3403ZM347.986 35.9458C350.909 37.1029 353.401 38.8652 355.472 41.2411L356.98 39.9269C354.699 37.3108 351.943 35.3611 348.722 34.0862L347.986 35.9458ZM355.482 41.2519C357.518 43.5204 358.586 46.6202 358.586 50.664H360.586C360.586 46.2598 359.415 42.6396 356.97 39.9161L355.482 41.2519ZM358.586 50.664C358.586 53.9903 357.682 57.0325 355.869 59.8137L357.544 60.9063C359.57 57.7995 360.586 54.3777 360.586 50.664H358.586ZM355.874 59.8053C354.082 62.494 351.336 64.6885 347.565 66.3576L348.375 68.1864C352.412 66.3995 355.491 63.986 357.538 60.9147L355.874 59.8053ZM347.578 66.3521C343.833 67.9485 339.175 68.768 333.57 68.768V70.768C339.357 70.768 344.3 69.9235 348.362 68.1919L347.578 66.3521ZM380.523 62.088L379.807 62.7861L380.523 62.088ZM373.035 1.8V0.799995H372.035V1.8H373.035ZM382.635 1.8H383.635V0.799995H382.635V1.8ZM415.659 55.944L416.393 56.624L416.399 56.6173L415.659 55.944ZM420.555 1.8V0.799995H419.555V1.8H420.555ZM429.867 1.8H430.867V0.799995H429.867V1.8ZM422.379 62.184L423.091 62.8866L423.095 62.8821L422.379 62.184ZM401.451 68.768C392.689 68.768 385.998 66.2706 381.239 61.3899L379.807 62.7861C385.033 68.1454 392.294 70.768 401.451 70.768V68.768ZM381.239 61.3899C376.485 56.5134 374.035 49.4389 374.035 40.008H372.035C372.035 49.7771 374.578 57.4226 379.807 62.7861L381.239 61.3899ZM374.035 40.008V1.8H372.035V40.008H374.035ZM373.035 2.8H382.635V0.799995H373.035V2.8ZM381.635 1.8V39.624H383.635V1.8H381.635ZM381.635 39.624C381.635 46.9479 383.236 52.6276 386.611 56.4827C390.008 60.3633 395.052 62.224 401.547 62.224V60.224C395.434 60.224 391.022 58.4847 388.116 55.1653C385.187 51.8204 383.635 46.7001 383.635 39.624H381.635ZM401.547 62.224C407.887 62.224 412.89 60.4016 416.393 56.6239L414.926 55.2641C411.901 58.5264 407.496 60.224 401.547 60.224V62.224ZM416.399 56.6173C419.898 52.7752 421.555 47.0466 421.555 39.624H419.555C419.555 46.7934 417.949 51.9448 414.92 55.2707L416.399 56.6173ZM421.555 39.624V1.8H419.555V39.624H421.555ZM420.555 2.8H429.867V0.799995H420.555V2.8ZM428.867 1.8V40.008H430.867V1.8H428.867ZM428.867 40.008C428.867 49.5051 426.417 56.6105 421.663 61.4859L423.095 62.8821C428.326 57.5175 430.867 49.8389 430.867 40.008H428.867ZM421.668 61.4814C416.91 66.3004 410.217 68.768 401.451 68.768V70.768C410.605 70.768 417.865 68.1796 423.091 62.8866L421.668 61.4814ZM494.477 69L493.658 69.5747L493.957 70H494.477V69ZM479.981 48.36L480.799 47.7853L480.474 47.3222L479.91 47.3625L479.981 48.36ZM459.149 48.552V47.552H458.149V48.552H459.149ZM459.149 69V70H460.149V69H459.149ZM449.549 69H448.549V70H449.549V69ZM449.549 1.8V0.799995H448.549V1.8H449.549ZM499.949 38.472L500.767 39.0464L499.949 38.472ZM489.005 46.44L488.673 45.4965L487.424 45.9355L488.188 47.017L489.005 46.44ZM504.941 69V70H506.871L505.758 68.423L504.941 69ZM489.389 14.088L488.755 14.8613L488.764 14.8689L489.389 14.088ZM459.149 10.152V9.15199H458.149V10.152H459.149ZM459.149 40.392H458.149V41.392H459.149V40.392ZM495.295 68.4253L480.799 47.7853L479.162 48.9347L493.658 69.5747L495.295 68.4253ZM479.91 47.3625C478.126 47.4899 476.746 47.552 475.757 47.552V49.552C476.816 49.552 478.251 49.4861 480.052 49.3575L479.91 47.3625ZM475.757 47.552H459.149V49.552H475.757V47.552ZM458.149 48.552V69H460.149V48.552H458.149ZM459.149 68H449.549V70H459.149V68ZM450.549 69V1.8H448.549V69H450.549ZM449.549 2.8H475.757V0.799995H449.549V2.8ZM475.757 2.8C484.307 2.8 490.901 4.84215 495.661 8.80822L496.941 7.27177C491.716 2.91784 484.615 0.799995 475.757 0.799995V2.8ZM495.661 8.80822C500.395 12.7534 502.789 18.1837 502.789 25.224H504.789C504.789 17.6722 502.191 11.6466 496.941 7.27177L495.661 8.80822ZM502.789 25.224C502.789 30.237 501.554 34.4441 499.13 37.8976L500.767 39.0464C503.464 35.2039 504.789 30.579 504.789 25.224H502.789ZM499.13 37.8976C496.705 41.3535 493.238 43.8926 488.673 45.4965L489.336 47.3835C494.243 45.6594 498.073 42.8865 500.767 39.0464L499.13 37.8976ZM488.188 47.017L504.124 69.577L505.758 68.423L489.822 45.863L488.188 47.017ZM504.941 68H494.477V70H504.941V68ZM475.469 41.392C481.675 41.392 486.577 40.055 490.023 37.2293L488.755 35.6827C485.801 38.105 481.423 39.392 475.469 39.392V41.392ZM490.023 37.2293C493.496 34.3811 495.189 30.3291 495.189 25.224H493.189C493.189 29.8469 491.681 33.2829 488.755 35.6827L490.023 37.2293ZM495.189 25.224C495.189 20.1195 493.496 16.0932 490.013 13.3071L488.764 14.8689C491.681 17.2028 493.189 20.6005 493.189 25.224H495.189ZM490.023 13.3147C486.577 10.489 481.675 9.15199 475.469 9.15199V11.152C481.423 11.152 485.801 12.439 488.755 14.8613L490.023 13.3147ZM475.469 9.15199H459.149V11.152H475.469V9.15199ZM458.149 10.152V40.392H460.149V10.152H458.149ZM459.149 41.392H475.469V39.392H459.149V41.392ZM568.067 60.648H569.067V59.648H568.067V60.648ZM568.067 69V70H569.067V69H568.067ZM519.299 69H518.299V70H519.299V69ZM519.299 1.8V0.799995H518.299V1.8H519.299ZM566.723 1.8H567.723V0.799995H566.723V1.8ZM566.723 10.152V11.152H567.723V10.152H566.723ZM528.899 10.152V9.15199H527.899V10.152H528.899ZM528.899 30.792H527.899V31.792H528.899V30.792ZM562.595 30.792H563.595V29.792H562.595V30.792ZM562.595 38.952V39.952H563.595V38.952H562.595ZM528.899 38.952V37.952H527.899V38.952H528.899ZM528.899 60.648H527.899V61.648H528.899V60.648ZM567.067 60.648V69H569.067V60.648H567.067ZM568.067 68H519.299V70H568.067V68ZM520.299 69V1.8H518.299V69H520.299ZM519.299 2.8H566.723V0.799995H519.299V2.8ZM565.723 1.8V10.152H567.723V1.8H565.723ZM566.723 9.15199H528.899V11.152H566.723V9.15199ZM527.899 10.152V30.792H529.899V10.152H527.899ZM528.899 31.792H562.595V29.792H528.899V31.792ZM561.595 30.792V38.952H563.595V30.792H561.595ZM562.595 37.952H528.899V39.952H562.595V37.952ZM527.899 38.952V60.648H529.899V38.952H527.899ZM528.899 61.648H568.067V59.648H528.899V61.648ZM583.611 1.8V0.799995H582.611V1.8H583.611ZM593.211 1.8H594.211V0.799995H593.211V1.8ZM593.211 60.648H592.211V61.648H593.211V60.648ZM629.595 60.648H630.595V59.648H629.595V60.648ZM629.595 69V70H630.595V69H629.595ZM583.611 69H582.611V70H583.611V69ZM583.611 2.8H593.211V0.799995H583.611V2.8ZM592.211 1.8V60.648H594.211V1.8H592.211ZM593.211 61.648H629.595V59.648H593.211V61.648ZM628.595 60.648V69H630.595V60.648H628.595ZM629.595 68H583.611V70H629.595V68ZM584.611 69V1.8H582.611V69H584.611ZM683.427 52.2L684.343 51.7973L684.08 51.2H683.427V52.2ZM647.715 52.2V51.2H647.063L646.8 51.7973L647.715 52.2ZM640.323 69V70H640.976L641.239 69.4027L640.323 69ZM630.435 69L629.524 68.5875L628.885 70H630.435V69ZM660.867 1.8V0.799995H660.222L659.956 1.38747L660.867 1.8ZM670.371 1.8L671.282 1.38639L671.015 0.799995H670.371V1.8ZM700.899 69V70H702.452L701.81 68.5864L700.899 69ZM690.819 69L689.904 69.4027L690.167 70H690.819V69ZM680.067 44.52V45.52H681.6L680.982 44.1171L680.067 44.52ZM665.571 11.592L666.487 11.1891L665.571 9.1101L664.656 11.1891L665.571 11.592ZM651.075 44.52L650.16 44.1171L649.542 45.52H651.075V44.52ZM683.427 51.2H647.715V53.2H683.427V51.2ZM646.8 51.7973L639.408 68.5973L641.239 69.4027L648.631 52.6027L646.8 51.7973ZM640.323 68H630.435V70H640.323V68ZM631.346 69.4125L661.778 2.21252L659.956 1.38747L629.524 68.5875L631.346 69.4125ZM660.867 2.8H670.371V0.799995H660.867V2.8ZM669.461 2.2136L699.989 69.4136L701.81 68.5864L671.282 1.38639L669.461 2.2136ZM700.899 68H690.819V70H700.899V68ZM691.735 68.5973L684.343 51.7973L682.512 52.6027L689.904 69.4027L691.735 68.5973ZM680.982 44.1171L666.487 11.1891L664.656 11.9949L679.152 44.9229L680.982 44.1171ZM664.656 11.1891L650.16 44.1171L651.99 44.9229L666.487 11.9949L664.656 11.1891ZM651.075 45.52H680.067V43.52H651.075V45.52ZM768.716 1.8H769.716V0.799995H768.716V1.8ZM768.716 69V70H769.716V69H768.716ZM760.844 69L760.065 69.6269L760.365 70H760.844V69ZM720.524 18.888L721.303 18.2611L719.524 16.0499V18.888H720.524ZM720.524 69V70H721.524V69H720.524ZM710.924 69H709.924V70H710.924V69ZM710.924 1.8V0.799995H709.924V1.8H710.924ZM718.796 1.8L719.575 1.17312L719.275 0.799995H718.796V1.8ZM759.116 51.912L758.337 52.5389L760.116 54.7501V51.912H759.116ZM759.116 1.8V0.799995H758.116V1.8H759.116ZM767.716 1.8V69H769.716V1.8H767.716ZM768.716 68H760.844V70H768.716V68ZM761.623 68.3731L721.303 18.2611L719.745 19.5149L760.065 69.6269L761.623 68.3731ZM719.524 18.888V69H721.524V18.888H719.524ZM720.524 68H710.924V70H720.524V68ZM711.924 69V1.8H709.924V69H711.924ZM710.924 2.8H718.796V0.799995H710.924V2.8ZM718.017 2.42687L758.337 52.5389L759.895 51.2851L719.575 1.17312L718.017 2.42687ZM760.116 51.912V1.8H758.116V51.912H760.116ZM759.116 2.8H768.716V0.799995H759.116V2.8ZM788.83 1.8V0.799995H787.83V1.8H788.83ZM836.062 6.024L835.607 6.91425L836.062 6.024ZM848.83 17.928L847.968 18.4345L847.972 18.4409L847.975 18.4473L848.83 17.928ZM848.83 52.968L847.972 52.4535L847.971 52.4567L848.83 52.968ZM836.062 64.776L835.607 63.8858L836.062 64.776ZM788.83 69H787.83V70H788.83V69ZM830.878 57.48L830.425 56.5883L830.42 56.5912L830.878 57.48ZM840.478 48.648L841.338 49.1582L841.342 49.1519L840.478 48.648ZM840.478 22.248L839.614 22.7519L839.618 22.7582L840.478 22.248ZM830.878 13.32L830.42 14.2088L830.425 14.2117L830.878 13.32ZM798.43 10.152V9.15199H797.43V10.152H798.43ZM798.43 60.648H797.43V61.648H798.43V60.648ZM788.83 2.8H817.15V0.799995H788.83V2.8ZM817.15 2.8C824.119 2.8 830.263 4.18046 835.607 6.91425L836.517 5.13375C830.853 2.23553 824.389 0.799995 817.15 0.799995V2.8ZM835.607 6.91425C840.949 9.64737 845.06 13.4855 847.968 18.4345L849.692 17.4214C846.584 12.1305 842.183 8.03262 836.517 5.13375L835.607 6.91425ZM847.975 18.4473C850.942 23.3293 852.438 28.9696 852.438 35.4H854.438C854.438 28.6464 852.862 22.6387 849.685 17.4087L847.975 18.4473ZM852.438 35.4C852.438 41.8302 850.942 47.5048 847.973 52.4535L849.688 53.4825C852.862 48.1912 854.438 42.1538 854.438 35.4H852.438ZM847.971 52.4567C845.064 57.3425 840.952 61.1509 835.607 63.8858L836.517 65.6662C842.18 62.7691 846.58 58.7055 849.689 53.4793L847.971 52.4567ZM835.607 63.8858C830.263 66.6195 824.119 68 817.15 68V70C824.389 70 830.853 68.5645 836.517 65.6662L835.607 63.8858ZM817.15 68H788.83V70H817.15V68ZM789.83 69V1.8H787.83V69H789.83ZM816.574 61.648C822.145 61.648 827.075 60.566 831.336 58.3688L830.42 56.5912C826.489 58.618 821.883 59.648 816.574 59.648V61.648ZM831.331 58.3717C835.649 56.1794 838.995 53.1078 841.338 49.1582L839.618 48.1378C837.481 51.7402 834.427 54.5566 830.425 56.5883L831.331 58.3717ZM841.342 49.1519C843.682 45.1408 844.838 40.5468 844.838 35.4H842.838C842.838 40.2372 841.754 44.4752 839.614 48.1441L841.342 49.1519ZM844.838 35.4C844.838 30.2535 843.682 25.6885 841.338 21.7378L839.618 22.7582C841.754 26.3595 842.838 30.5625 842.838 35.4H844.838ZM841.342 21.7441C839 17.7296 835.653 14.6229 831.331 12.4283L830.425 14.2117C834.423 16.2411 837.476 19.0864 839.614 22.7519L841.342 21.7441ZM831.336 12.4312C827.075 10.234 822.145 9.15199 816.574 9.15199V11.152C821.883 11.152 826.489 12.182 830.42 14.2088L831.336 12.4312ZM816.574 9.15199H798.43V11.152H816.574V9.15199ZM797.43 10.152V60.648H799.43V10.152H797.43ZM798.43 61.648H816.574V59.648H798.43V61.648Z" fill="black"/>
</svg>
