<svg width="158" height="158" viewBox="0 0 158 158" fill="none" xmlns="http://www.w3.org/2000/svg">
<circle cx="79" cy="79" r="77.5" stroke="#C4C4C4" stroke-width="3"/>
<path d="M0 0V-1H-1V0H0ZM158 0H159V-1H158V0ZM158 158V159H159V158H158ZM0 158H-1V159H0V158ZM0 1H158V-1H0V1ZM157 0V158H159V0H157ZM158 157H0V159H158V157ZM1 158V0H-1V158H1Z" fill="white"/>
<path d="M107.701 97.6864L107.7 97.6858C106.724 96.791 105.69 96.2857 104.643 96.2857H102.554C101.507 96.2857 100.474 96.7909 99.4975 97.6854C97.8464 99.1989 94.9237 100.357 91.3 100.357C87.6759 100.357 84.754 99.1987 83.101 97.6864L83.1003 97.6858C82.1235 96.791 81.0901 96.2857 80.0429 96.2857H77.9545C76.9075 96.2857 75.8742 96.7909 74.8975 97.6854C73.2464 99.1989 70.3237 100.357 66.7 100.357C63.0759 100.357 60.154 99.1987 58.501 97.6864L58.5003 97.6858C57.5235 96.791 56.4901 96.2857 55.4429 96.2857H53.3545C52.3075 96.2857 51.2742 96.7909 50.2975 97.6854L107.701 97.6864ZM107.701 97.6864C109.354 99.1987 112.276 100.357 115.9 100.357H117.95C118.264 100.357 118.5 100.606 118.5 100.893V104.964C118.5 105.251 118.264 105.5 117.95 105.5H115.9C111.25 105.5 107.237 104.042 104.564 101.8L103.6 100.991L102.636 101.799C99.9625 104.041 95.9499 105.5 91.3 105.5C86.6498 105.5 82.6375 104.042 79.9639 101.8L79.0002 100.991L78.0364 101.799C75.3625 104.041 71.3499 105.5 66.7 105.5C62.0498 105.5 58.0375 104.042 55.3639 101.8L54.4002 100.991M107.701 97.6864L54.4002 100.991M54.4002 100.991L53.4364 101.799M54.4002 100.991L53.4364 101.799M53.4364 101.799C50.7625 104.041 46.7499 105.5 42.1 105.5H40.05C39.7359 105.5 39.5 105.251 39.5 104.964V100.893C39.5 100.606 39.7359 100.357 40.05 100.357H42.1C45.7234 100.357 48.646 99.1991 50.2972 97.6858L53.4364 101.799ZM66.7 81.0714H65.2V82.5714V93.1624C64.8224 93.0969 64.4972 93.0111 64.2251 92.9198C63.9326 92.8216 63.7062 92.7186 63.5447 92.6309C63.3883 92.5459 63.3181 92.489 63.31 92.4825C63.3092 92.4819 63.309 92.4817 63.3093 92.482L63.3064 92.4793C62.2747 91.5352 61.161 90.8088 60 90.278V62.2143C60 56.3169 64.8356 51.5 70.8 51.5C76.7644 51.5 81.6 56.3169 81.6 62.2143V64.25C81.6 64.5364 81.3641 64.7857 81.05 64.7857H76.95C76.6359 64.7857 76.4 64.5364 76.4 64.25V62.2143C76.4 59.1316 73.8786 56.6429 70.8 56.6429C67.7214 56.6429 65.2 59.1316 65.2 62.2143V74.4286V75.9286H66.7H91.3H92.8V74.4286V62.2143C92.8 56.3169 97.6356 51.5 103.6 51.5C109.564 51.5 114.4 56.3169 114.4 62.2143V64.25C114.4 64.5364 114.164 64.7857 113.85 64.7857H109.75C109.436 64.7857 109.2 64.5364 109.2 64.25V62.2143C109.2 59.1316 106.679 56.6429 103.6 56.6429C100.521 56.6429 98 59.1316 98 62.2143V90.2791C96.8392 90.8095 95.7253 91.5354 94.6929 92.4812L94.6924 92.4817C94.6956 92.4787 94.6272 92.5382 94.456 92.631C94.2944 92.7188 94.0677 92.8217 93.7752 92.9198C93.503 93.0111 93.1777 93.0969 92.8 93.1624V82.5714V81.0714H91.3H66.7Z" fill="white" stroke="#C4C4C4" stroke-width="3"/>
</svg>
