<svg width="158" height="158" viewBox="0 0 158 158" fill="none" xmlns="http://www.w3.org/2000/svg">
<g filter="url(#filter0_b)">
<g filter="url(#filter1_b)">
<path d="M112.902 104.58H88.1499V112.015H113.155C113.707 112.049 114.25 111.85 114.695 111.452C115.141 111.054 115.46 110.482 115.6 109.831V108.028C115.6 108.028 115.582 104.58 112.902 104.58ZM109.479 103.111C111.103 103.108 112.661 102.319 113.809 100.917C114.956 99.515 115.601 97.615 115.6 95.6343C115.6 91.4944 112.855 88.1557 109.479 88.1557C108.674 88.1574 107.879 88.3522 107.136 88.7291C106.394 89.1059 105.72 89.6573 105.153 90.3519C104.585 91.0464 104.136 91.8704 103.83 92.7768C103.524 93.6832 103.367 94.6542 103.369 95.6343C103.369 99.7593 106.107 103.111 109.479 103.111ZM96.5862 102.721C99.7979 102.721 102.381 99.9619 102.381 96.0526C102.38 92.1506 99.7872 90.1039 96.5999 90.0742L88.1499 91.3791V102.721H96.5862ZM69.1225 54.2632C72.8725 54.2632 75.9057 50.5453 75.9057 45.9592C75.9057 41.3732 72.8725 37.6571 69.1225 37.6571C65.3756 37.6571 62.3378 41.3732 62.3378 45.9592C62.3378 50.5453 65.3756 54.2632 69.1225 54.2632ZM62.1959 81.1363L62.1349 81.0285L59.0605 72.3025L59.056 89.7079H68.2441L70.251 87.1054L64.8083 84.5512C63.5181 83.96 62.6016 82.6216 62.1959 81.1363ZM64.1434 80.3537C64.4407 81.1679 64.9913 81.8278 65.6836 82.1308L76.171 86.8693C76.4905 87.0407 76.8347 87.1335 77.1837 87.1423C77.5327 87.1511 77.8797 87.0758 78.2047 86.9207C78.5298 86.7656 78.8265 86.5337 79.0779 86.2384C79.3292 85.9431 79.5302 85.5902 79.6694 85.2C79.9533 84.4091 79.969 83.5134 79.7129 82.7085C79.4569 81.9035 78.95 81.2548 78.303 80.9039L68.6269 76.4498L65.6379 67.7109L67.5868 66.826L70.1198 74.3139L77.4749 77.6377V68.4879L81.3789 71.3191L83.3248 83.2685C83.4369 83.6728 83.6135 84.046 83.8447 84.3666C84.0758 84.6871 84.3567 84.9487 84.6712 85.136C84.9858 85.3234 85.3277 85.4329 85.6771 85.4583C86.0266 85.4836 86.3767 85.4242 86.7073 85.2836C87.3729 84.995 87.9183 84.398 88.2252 83.6223C88.5321 82.8466 88.5758 81.9547 88.3466 81.14L86.1659 69.6312C86.023 68.9941 85.724 68.4253 85.3088 68.0009C84.191 66.4914 78.5378 58.786 78.1352 58.2711C77.5451 57.5498 76.1954 56.2467 73.6456 56.2467H64.4956C59.2954 56.2467 58.295 62.7159 59.3579 66.0062L64.1434 80.3537ZM86.6249 91.5669H45.3996C43.899 91.5669 42.3999 92.5986 42.3999 94.8684V112.015H86.6249V91.5669Z" fill="white"/>
<path d="M89.1499 111.015V105.58H112.902C113.336 105.58 113.609 105.712 113.805 105.879C114.019 106.062 114.193 106.335 114.325 106.67C114.456 107.003 114.527 107.35 114.564 107.623C114.582 107.757 114.591 107.867 114.596 107.94C114.597 107.96 114.598 107.977 114.598 107.991C114.599 108.003 114.599 108.013 114.6 108.02L114.6 108.034C114.6 108.034 114.6 108.033 115.6 108.028L89.1499 111.015ZM61.2646 81.5209L61.2663 81.524C61.7405 83.1509 62.7898 84.7243 64.3873 85.4583C64.3887 85.459 64.3902 85.4596 64.3917 85.4603L68.6983 87.4814L67.7524 88.7079H60.0562L60.059 78.1457L61.1918 81.3608L61.2211 81.444L61.2646 81.5209ZM99.9933 92.3333C100.816 93.1217 101.38 94.334 101.381 96.0526V96.053C101.381 99.5239 99.1379 101.721 96.5862 101.721H89.1499V92.2366L96.6692 91.0753C98.0203 91.1042 99.1768 91.5508 99.9933 92.3333ZM104.369 95.6343L104.369 95.6323C104.368 94.7588 104.507 93.8968 104.777 93.0966C105.047 92.2964 105.441 91.5799 105.927 90.9845C106.413 90.3893 106.98 89.9298 107.589 89.6207C108.196 89.3125 108.838 89.1573 109.479 89.1557C112.126 89.156 114.6 91.8517 114.6 95.6343V95.6347C114.601 97.4073 114.022 99.0774 113.035 100.283C112.052 101.484 110.766 102.109 109.477 102.111C106.838 102.11 104.369 99.4047 104.369 95.6343ZM76.4749 68.4879V76.0884L70.9278 73.5817L68.5341 66.5056L68.1799 65.4585L67.1734 65.9155L65.2244 66.8003L64.3979 67.1756L64.6917 68.0345L67.6807 76.7735L67.8194 77.179L68.2087 77.3582L77.8512 81.7968C78.2277 82.0106 78.574 82.4267 78.76 83.0116C78.9498 83.6085 78.9375 84.2789 78.7282 84.8621L78.7275 84.8641C78.6262 85.1481 78.4839 85.3934 78.3164 85.5902C78.1491 85.7868 77.9627 85.9282 77.7741 86.0182C77.5865 86.1077 77.3953 86.1473 77.2089 86.1426C77.0224 86.1379 76.8309 86.0885 76.6437 85.9881L76.6138 85.972L76.5828 85.958L66.0953 81.2195L66.0954 81.2195L66.0845 81.2147C65.7017 81.0472 65.3151 80.6385 65.0872 80.0229L60.3095 65.6988C60.309 65.6974 60.3086 65.696 60.3081 65.6946C59.8474 64.2643 59.8274 62.0601 60.5134 60.2463C61.1811 58.4811 62.4311 57.2467 64.4956 57.2467H73.6456C75.7822 57.2467 76.8739 58.3113 77.354 58.8954C77.6341 59.2568 79.9584 62.4173 81.9192 65.0836C83.0663 66.6434 84.089 68.034 84.5052 68.596L84.546 68.6511L84.594 68.7002C84.8636 68.9758 85.0791 69.3671 85.1867 69.835L87.3641 81.3262L87.3722 81.3689L87.384 81.4107C87.5548 82.018 87.5205 82.6854 87.2954 83.2544C87.0707 83.8222 86.697 84.1969 86.3125 84.3648C86.1255 84.4438 85.9352 84.4744 85.7494 84.4609C85.5622 84.4473 85.37 84.3883 85.1831 84.2769C84.9951 84.165 84.8134 84.0003 84.6558 83.7817C84.5067 83.575 84.3848 83.3274 84.3024 83.0498L82.3659 71.1584L82.2997 70.7516L81.966 70.5096L78.062 67.6784L76.4749 66.5274V68.4879ZM74.9057 45.9592C74.9057 50.192 72.1402 53.2632 69.1225 53.2632C66.1072 53.2632 63.3378 50.1914 63.3378 45.9592C63.3378 41.7274 66.107 38.6571 69.1225 38.6571C72.1405 38.6571 74.9057 41.7268 74.9057 45.9592ZM45.3996 92.5669H85.6249V111.015H43.3999V94.8684C43.3999 93.9656 43.6909 93.4141 44.0307 93.0867C44.383 92.7475 44.873 92.5669 45.3996 92.5669Z" stroke="#C4C4C4" stroke-width="2"/>
</g>
</g>
<circle cx="79" cy="79" r="77.5" stroke="#C4C4C4" stroke-width="3"/>
<defs>
<filter id="filter0_b" x="14" y="11" width="130" height="130" filterUnits="userSpaceOnUse" color-interpolation-filters="sRGB">
<feFlood flood-opacity="0" result="BackgroundImageFix"/>
<feGaussianBlur in="BackgroundImage" stdDeviation="2"/>
<feComposite in2="SourceAlpha" operator="in" result="effect1_backgroundBlur"/>
<feBlend mode="normal" in="SourceGraphic" in2="effect1_backgroundBlur" result="shape"/>
</filter>
<filter id="filter1_b" x="38.3999" y="33.6571" width="81.2" height="82.3619" filterUnits="userSpaceOnUse" color-interpolation-filters="sRGB">
<feFlood flood-opacity="0" result="BackgroundImageFix"/>
<feGaussianBlur in="BackgroundImage" stdDeviation="2"/>
<feComposite in2="SourceAlpha" operator="in" result="effect1_backgroundBlur"/>
<feBlend mode="normal" in="SourceGraphic" in2="effect1_backgroundBlur" result="shape"/>
</filter>
</defs>
</svg>
